<svg width="722" height="745" viewBox="0 0 722 745" fill="none" xmlns="http://www.w3.org/2000/svg">
<g opacity="0.21">
<rect width="722" height="745" fill="white"/>
<path d="M486.616 0C486.616 0 550.4 161.013 277.035 269.165C128.494 327.915 14.4064 478.498 150.627 711.111C161.908 607.137 210.282 377.887 418.285 325.574C418.285 325.574 224.688 400.272 207.587 738.396C307.065 752.807 540.37 762.491 609.638 553.578C701.106 277.557 486.616 0 486.616 0Z" fill="#006699"/>
<path d="M207.677 736.989C418.861 650.021 572.523 446.289 593.731 203.082C550.557 82.9154 486.616 0 486.616 0C486.616 0 550.4 161.013 277.035 269.165C128.494 327.915 14.4064 478.498 150.627 711.111C161.908 607.137 210.282 377.887 418.285 325.574C418.274 325.576 225.253 400.087 207.677 736.989Z" fill="#3C9DE4"/>
<path d="M129.554 274.532C140.458 274.532 149.297 265.412 149.297 254.161C149.297 242.91 140.458 233.789 129.554 233.789C118.65 233.789 109.811 242.91 109.811 254.161C109.811 265.412 118.65 274.532 129.554 274.532Z" fill="#87CDF4"/>
<path d="M191.601 248.34C199.388 248.34 205.702 241.825 205.702 233.789C205.702 225.753 199.388 219.239 191.601 219.239C183.813 219.239 177.499 225.753 177.499 233.789C177.499 241.825 183.813 248.34 191.601 248.34Z" fill="#56BFFB"/>
<path d="M178.91 131.934C198.38 131.934 214.163 115.648 214.163 95.5581C214.163 75.4681 198.38 59.1819 178.91 59.1819C159.44 59.1819 143.657 75.4681 143.657 95.5581C143.657 115.648 159.44 131.934 178.91 131.934Z" fill="#56BFFB"/>
<path d="M287.491 190.138C293.722 190.138 298.772 184.926 298.772 178.497C298.772 172.068 293.722 166.856 287.491 166.856C281.261 166.856 276.21 172.068 276.21 178.497C276.21 184.926 281.261 190.138 287.491 190.138Z" fill="#56BFFB"/>
<path d="M381.982 146.485C399.895 146.485 414.416 131.501 414.416 113.018C414.416 94.5354 399.895 79.552 381.982 79.552C364.07 79.552 349.549 94.5354 349.549 113.018C349.549 131.501 364.07 146.485 381.982 146.485Z" fill="#56BFFB"/>
</g>
</svg>
