<svg width="37" height="36" viewBox="0 0 37 36" fill="none" xmlns="http://www.w3.org/2000/svg">
<g clip-path="url(#clip0_26_513)">
<path fill-rule="evenodd" clip-rule="evenodd" d="M18.5 6C15.3174 6 12.2652 7.26428 10.0147 9.51472C7.76428 11.7652 6.5 14.8174 6.5 18C6.5 21.1826 7.76428 24.2348 10.0147 26.4853C12.2652 28.7357 15.3174 30 18.5 30C21.6826 30 24.7348 28.7357 26.9853 26.4853C29.2357 24.2348 30.5 21.1826 30.5 18C30.5 14.8174 29.2357 11.7652 26.9853 9.51472C24.7348 7.26428 21.6826 6 18.5 6ZM3.5 18C3.5 9.7155 10.2155 3 18.5 3C26.7845 3 33.5 9.7155 33.5 18C33.5 26.2845 26.7845 33 18.5 33C10.2155 33 3.5 26.2845 3.5 18ZM13.25 15C12.9575 15 12.584 15.186 12.341 15.672C12.1609 16.0245 11.8489 16.2915 11.4728 16.4149C11.0967 16.5383 10.6871 16.508 10.3332 16.3307C9.97932 16.1533 9.70988 15.8433 9.5836 15.4682C9.45732 15.0931 9.48442 14.6832 9.659 14.328C10.313 13.02 11.6195 12 13.25 12C14.8805 12 16.1855 13.02 16.841 14.328C17.0156 14.6832 17.0427 15.0931 16.9164 15.4682C16.7901 15.8433 16.5207 16.1533 16.1668 16.3307C15.8129 16.508 15.4033 16.5383 15.0272 16.4149C14.6512 16.2915 14.3391 16.0245 14.159 15.672C13.916 15.186 13.544 15 13.25 15ZM23.75 15C23.4575 15 23.084 15.186 22.841 15.672C22.7537 15.8497 22.6321 16.0083 22.4832 16.1387C22.3342 16.2692 22.161 16.3688 21.9734 16.432C21.7858 16.4952 21.5875 16.5206 21.39 16.5067C21.1925 16.4929 20.9998 16.4401 20.8228 16.3514C20.6458 16.2627 20.4881 16.1399 20.3588 15.99C20.2296 15.8401 20.1312 15.666 20.0695 15.4779C20.0078 15.2898 19.984 15.0914 19.9993 14.894C20.0147 14.6967 20.0689 14.5043 20.159 14.328C20.8145 13.02 22.1195 12 23.75 12C25.3805 12 26.6855 13.02 27.341 14.328C27.5156 14.6832 27.5427 15.0931 27.4164 15.4682C27.2901 15.8433 27.0207 16.1533 26.6668 16.3307C26.3129 16.508 25.9033 16.5383 25.5272 16.4149C25.1511 16.2915 24.8391 16.0245 24.659 15.672C24.416 15.186 24.044 15 23.75 15ZM13.406 21.507C13.5364 21.3592 13.6946 21.2385 13.8716 21.1519C14.0486 21.0653 14.241 21.0144 14.4376 21.0021C14.6343 20.9899 14.8315 21.0165 15.0179 21.0805C15.2043 21.1444 15.3763 21.2445 15.524 21.375C16.319 22.077 17.3585 22.5 18.5 22.5C19.6415 22.5 20.6825 22.077 21.476 21.375C21.7744 21.1116 22.1651 20.9776 22.5623 21.0023C22.9595 21.0271 23.3306 21.2086 23.594 21.507C23.8574 21.8054 23.9914 22.1961 23.9667 22.5933C23.9419 22.9905 23.7604 23.3616 23.462 23.625C22.0928 24.8355 20.3276 25.5025 18.5 25.5C16.6724 25.5025 14.9072 24.8355 13.538 23.625C13.3902 23.4946 13.2695 23.3364 13.1829 23.1594C13.0963 22.9824 13.0454 22.79 13.0331 22.5934C13.0209 22.3967 13.0475 22.1995 13.1115 22.0131C13.1754 21.8267 13.2755 21.6547 13.406 21.507Z" fill="#F8F8F8"/>
</g>
<defs>
<clipPath id="clip0_26_513">
<rect width="36" height="36" fill="white" transform="translate(0.5)"/>
</clipPath>
</defs>
</svg>
