<svg width="753" height="401" viewBox="0 0 753 401" fill="none" xmlns="http://www.w3.org/2000/svg">
<path d="M0 189.046V1.71194H0.244462L100.23 143.558L85.0734 140.134L184.815 1.71194H185.304V189.046H149.856V81.6837L152.056 100.026L91.185 186.601H90.6961L28.1133 100.026L34.2249 83.151V189.046H0Z" fill="#006699"/>
<path d="M220.81 99.2921C220.81 86.901 223.173 75.162 227.899 64.0752C232.626 52.9884 239.145 43.2059 247.457 34.7278C255.931 26.0866 265.71 19.3204 276.792 14.4292C287.875 9.53792 299.772 7.09231 312.484 7.09231C325.033 7.09231 336.849 9.53792 347.931 14.4292C359.014 19.3204 368.792 26.0866 377.267 34.7278C385.905 43.2059 392.587 52.9884 397.313 64.0752C402.202 75.162 404.647 86.901 404.647 99.2921C404.647 112.009 402.202 123.911 397.313 134.998C392.587 146.085 385.905 155.867 377.267 164.346C368.792 172.661 359.014 179.182 347.931 183.911C336.849 188.639 325.033 191.003 312.484 191.003C299.772 191.003 287.875 188.639 276.792 183.911C265.71 179.182 255.931 172.661 247.457 164.346C239.145 155.867 232.626 146.085 227.899 134.998C223.173 123.911 220.81 112.009 220.81 99.2921ZM257.48 99.2921C257.48 107.281 258.865 114.781 261.635 121.792C264.569 128.64 268.562 134.754 273.614 140.134C278.829 145.351 284.778 149.427 291.46 152.362C298.305 155.297 305.72 156.764 313.706 156.764C321.366 156.764 328.456 155.297 334.975 152.362C341.657 149.427 347.442 145.351 352.331 140.134C357.221 134.754 361.051 128.64 363.821 121.792C366.592 114.781 367.977 107.281 367.977 99.2921C367.977 91.1401 366.51 83.5587 363.577 76.5479C360.806 69.5371 356.895 63.4231 351.843 58.2057C346.953 52.8254 341.168 48.6678 334.486 45.7331C327.804 42.7983 320.551 41.331 312.728 41.331C304.906 41.331 297.653 42.7983 290.971 45.7331C284.289 48.6678 278.422 52.8254 273.37 58.2057C268.317 63.4231 264.406 69.5371 261.635 76.5479C258.865 83.5587 257.48 91.1401 257.48 99.2921Z" fill="#006699"/>
<path d="M420.363 189.046C420.363 189.046 421.748 186.845 424.519 182.443C427.29 178.041 430.957 172.172 435.52 164.835C440.246 157.498 445.461 149.183 451.166 139.889C457.033 130.596 462.981 121.058 469.011 111.276C475.204 101.493 481.153 91.9553 486.857 82.6619C492.724 73.3686 497.94 65.0535 502.503 57.7166C507.229 50.3798 510.978 44.5103 513.748 40.1082C516.519 35.706 517.904 33.505 517.904 33.505L521.816 43.2875H457.033C453.61 43.2875 450.025 42.5538 446.276 41.0864C442.691 39.456 439.594 37.3365 436.987 34.7278C434.542 31.9561 433.32 28.9398 433.32 25.679V0H465.833V3.42387C465.833 7.01078 466.404 8.88575 467.545 9.04879C468.685 9.04879 470.723 9.04879 473.656 9.04879H573.642L478.79 158.721L476.834 154.808H573.397V189.046H420.363Z" fill="#006699"/>
<path d="M588.72 189.046L669.882 1.9565H671.838L753 189.046H711.93L660.104 57.472L685.772 39.8636L623.679 189.046H588.72ZM644.214 123.993H698.24L710.708 153.829H633.213L644.214 123.993Z" fill="#006699"/>
<path d="M4.40035 227.361H16.3791V389.506H111.475V401H4.40035V227.361Z" fill="#006699"/>
<path d="M244.596 227.361H256.574V401H244.596V227.361Z" fill="#006699"/>
<path d="M404.815 227.361H502.111V238.855H416.794V310.512H492.333V321.762H416.794V401H404.815V227.361Z" fill="#006699"/>
<path d="M639.042 227.361H746.117V238.855H651.02V307.822H736.583V319.316H651.02V389.506H749.539V401H639.042V227.361Z" fill="#006699"/>
</svg>
