<svg width="62" height="14" viewBox="0 0 62 14" fill="none" xmlns="http://www.w3.org/2000/svg">
<path d="M6.90586 2.48856C7.12834 1.83495 8.05275 1.83495 8.27522 2.48856L8.98656 4.57838C9.08633 4.87149 9.36162 5.06858 9.67124 5.06858H11.899C12.6078 5.06858 12.8936 5.98224 12.3112 6.38615L10.5676 7.5954C10.3023 7.77943 10.1911 8.11706 10.2951 8.42276L10.9746 10.419C11.1994 11.0795 10.4511 11.644 9.87775 11.2464L8.00272 9.94597C7.75483 9.77405 7.42626 9.77405 7.17836 9.94597L5.30334 11.2464C4.73003 11.644 3.98166 11.0795 4.20648 10.419L4.88597 8.42276C4.99002 8.11706 4.87882 7.77943 4.61346 7.5954L2.86988 6.38615C2.28748 5.98224 2.57331 5.06858 3.28206 5.06858H5.50985C5.81947 5.06858 6.09476 4.87149 6.19453 4.57838L6.90586 2.48856Z" fill="#FFA858"/>
<path d="M18.6102 2.59413C18.8267 1.92778 19.7694 1.92778 19.9859 2.59413L20.6275 4.56882C20.7243 4.86682 21.002 5.06858 21.3154 5.06858H23.3917C24.0923 5.06858 24.3836 5.96513 23.8168 6.37696L22.137 7.59744C21.8835 7.78161 21.7774 8.10806 21.8743 8.40605L22.5159 10.3808C22.7324 11.0471 21.9697 11.6012 21.4029 11.1894L19.7232 9.969C19.4697 9.78481 19.1264 9.78481 18.8729 9.969L17.1932 11.1894C16.6264 11.6012 15.8637 11.0471 16.0802 10.3808L16.7218 8.40605C16.8187 8.10806 16.7126 7.78161 16.4591 7.59744L14.7793 6.37696C14.2125 5.96513 14.5038 5.06858 15.2044 5.06858H17.2807C17.5941 5.06858 17.8718 4.86682 17.9686 4.56882L18.6102 2.59413Z" fill="#FFA858"/>
<path d="M30.3207 2.48856C30.5431 1.83495 31.4675 1.83495 31.69 2.48856L32.4014 4.57838C32.5011 4.87149 32.7764 5.06858 33.086 5.06858H35.3138C36.0226 5.06858 36.3084 5.98224 35.726 6.38615L33.9824 7.5954C33.7171 7.77943 33.6059 8.11706 33.7099 8.42276L34.3894 10.419C34.6142 11.0795 33.8658 11.644 33.2925 11.2464L31.4175 9.94597C31.1696 9.77405 30.8411 9.77405 30.5932 9.94597L28.7181 11.2464C28.1448 11.644 27.3965 11.0795 27.6213 10.419L28.3008 8.42276C28.4048 8.11706 28.2936 7.77943 28.0283 7.5954L26.2847 6.38615C25.7023 5.98224 25.9881 5.06858 26.6969 5.06858H28.9246C29.2343 5.06858 29.5096 4.87149 29.6093 4.57838L30.3207 2.48856Z" fill="#FFA858"/>
<path d="M42.0252 2.59413C42.2417 1.92778 43.1844 1.92778 43.401 2.59413L44.0426 4.56882C44.1394 4.86682 44.4171 5.06858 44.7304 5.06858H46.8067C47.5073 5.06858 47.7987 5.96513 47.2318 6.37696L45.552 7.59744C45.2986 7.78161 45.1925 8.10806 45.2893 8.40605L45.9309 10.3808C46.1474 11.0471 45.3848 11.6012 44.8179 11.1894L43.1382 9.969C42.8847 9.78481 42.5415 9.78481 42.288 9.969L40.6083 11.1894C40.0414 11.6012 39.2788 11.0471 39.4953 10.3808L40.1369 8.40605C40.2337 8.10806 40.1276 7.78161 39.8741 7.59744L38.1944 6.37696C37.6275 5.96513 37.9188 5.06858 38.6195 5.06858H40.6958C41.0091 5.06858 41.2868 4.86682 41.3836 4.56882L42.0252 2.59413Z" fill="#FFA858"/>
<path d="M53.7355 2.48856C53.9579 1.83495 54.8823 1.83495 55.1048 2.48856L55.8162 4.57838C55.9159 4.87149 56.1912 5.06858 56.5008 5.06858H58.7286C59.4374 5.06858 59.7232 5.98224 59.1408 6.38615L57.3972 7.5954C57.1319 7.77943 57.0207 8.11706 57.1247 8.42276L57.8042 10.419C58.029 11.0795 57.2806 11.644 56.7073 11.2464L54.8323 9.94597C54.5844 9.77405 54.2558 9.77405 54.008 9.94597L52.1329 11.2464C51.5596 11.644 50.8113 11.0795 51.0361 10.419L51.7156 8.42276C51.8196 8.11706 51.7084 7.77943 51.4431 7.5954L49.6995 6.38615C49.1171 5.98224 49.4029 5.06858 50.1116 5.06858H52.3394C52.6491 5.06858 52.9243 4.87149 53.0241 4.57838L53.7355 2.48856Z" fill="#FFA858"/>
</svg>
