<svg width="62" height="14" viewBox="0 0 62 14" fill="none" xmlns="http://www.w3.org/2000/svg">
<path d="M6.89223 2.36858C7.11459 1.71532 8.0385 1.71532 8.26086 2.36858L8.97181 4.45727C9.07153 4.75023 9.34666 4.94721 9.65612 4.94721L11.8827 4.94721C12.5911 4.94721 12.8767 5.86038 12.2947 6.26408L10.552 7.47267C10.2868 7.6566 10.1757 7.99406 10.2797 8.29959L10.9588 10.2948C11.1835 10.9549 10.4355 11.5191 9.86252 11.1217L7.9885 9.82198C7.74074 9.65015 7.41235 9.65015 7.16459 9.82198L5.29057 11.1217C4.71757 11.5191 3.96961 10.9549 4.1943 10.2948L4.87342 8.29959C4.97742 7.99406 4.86627 7.6566 4.60107 7.47267L2.85842 6.26408C2.27634 5.86038 2.56201 4.94721 3.27038 4.94721L5.49697 4.94721C5.80643 4.94721 6.08156 4.75023 6.18128 4.45727L6.89223 2.36858Z" fill="#FFA858"/>
<path d="M18.5899 2.47385C18.8063 1.80785 19.7485 1.80785 19.9649 2.47385L20.6061 4.44747C20.7029 4.74532 20.9805 4.94697 21.2936 4.94697L23.3688 4.94697C24.0691 4.94697 24.3602 5.84304 23.7937 6.25464L22.1148 7.47446C21.8615 7.65854 21.7554 7.98481 21.8522 8.28264L22.4935 10.2563C22.7099 10.9223 21.9476 11.4761 21.3811 11.0645L19.7023 9.84475C19.4489 9.66066 19.1058 9.66066 18.8525 9.84475L17.1737 11.0645C16.6072 11.4761 15.8449 10.9223 16.0613 10.2563L16.7026 8.28264C16.7993 7.98481 16.6933 7.65854 16.44 7.47446L14.7611 6.25464C14.1946 5.84304 14.4857 4.94697 15.186 4.94697L17.2612 4.94697C17.5743 4.94697 17.8519 4.74532 17.9486 4.44747L18.5899 2.47385Z" fill="#FFA858"/>
<path d="M30.2941 2.36833C30.5164 1.71508 31.4404 1.71508 31.6627 2.36833L32.3737 4.45703C32.4734 4.74998 32.7485 4.94697 33.058 4.94697L35.2846 4.94697C35.9929 4.94697 36.2786 5.86014 35.6965 6.26383L33.9539 7.47242C33.6887 7.65635 33.5775 7.99381 33.6815 8.29934L34.3606 10.2945C34.5853 10.9546 33.8374 11.5188 33.2644 11.1214L31.3904 9.82174C31.1426 9.64991 30.8142 9.64991 30.5664 9.82174L28.6924 11.1214C28.1194 11.5188 27.3715 10.9546 27.5962 10.2945L28.2753 8.29934C28.3793 7.99381 28.2681 7.65635 28.0029 7.47242L26.2603 6.26383C25.6782 5.86014 25.9639 4.94697 26.6722 4.94697L28.8988 4.94697C29.2083 4.94697 29.4834 4.74998 29.5831 4.45703L30.2941 2.36833Z" fill="#FFA858"/>
<path d="M41.9922 2.47385C42.2086 1.80785 43.1508 1.80785 43.3672 2.47385L44.0085 4.44747C44.1052 4.74532 44.3828 4.94697 44.696 4.94697L46.7711 4.94697C47.4714 4.94697 47.7626 5.84304 47.196 6.25464L45.5171 7.47446C45.2638 7.65854 45.1578 7.98481 45.2546 8.28264L45.8958 10.2563C46.1122 10.9223 45.35 11.4761 44.7834 11.0645L43.1046 9.84475C42.8513 9.66066 42.5082 9.66066 42.2548 9.84475L40.576 11.0645C40.0095 11.4761 39.2472 10.9223 39.4636 10.2563L40.1049 8.28264C40.2017 7.98481 40.0957 7.65854 39.8423 7.47446L38.1634 6.25464C37.5969 5.84304 37.8881 4.94697 38.5883 4.94697L40.6635 4.94697C40.9767 4.94697 41.2542 4.74532 41.351 4.44747L41.9922 2.47385Z" fill="#FFA858"/>
<path d="M53.6964 2.36833C53.9188 1.71508 54.8427 1.71508 55.0651 2.36833L55.776 4.45703C55.8757 4.74998 56.1509 4.94697 56.4603 4.94697L58.6869 4.94697C59.3953 4.94697 59.6809 5.86014 59.0989 6.26383L57.3562 7.47242C57.091 7.65635 56.9799 7.99381 57.0839 8.29934L57.763 10.2945C57.9877 10.9546 57.2397 11.5188 56.6667 11.1214L54.7927 9.82174C54.5449 9.64991 54.2165 9.64991 53.9688 9.82174L52.0948 11.1214C51.5218 11.5188 50.7738 10.9546 50.9985 10.2945L51.6776 8.29934C51.7816 7.99381 51.6705 7.65635 51.4053 7.47242L49.6626 6.26383C49.0805 5.86014 49.3662 4.94697 50.0746 4.94697L52.3012 4.94697C52.6106 4.94697 52.8858 4.74998 52.9855 4.45703L53.6964 2.36833Z" fill="#FFA858"/>
</svg>
