<svg width="61" height="14" viewBox="0 0 61 14" fill="none" xmlns="http://www.w3.org/2000/svg">
<path d="M6.34434 2.48856C6.56682 1.83495 7.49123 1.83495 7.7137 2.48856L8.42504 4.57838C8.52481 4.87149 8.80009 5.06858 9.10972 5.06858H11.3375C12.0463 5.06858 12.3321 5.98224 11.7497 6.38615L10.0061 7.5954C9.74075 7.77943 9.62955 8.11706 9.7336 8.42276L10.4131 10.419C10.6379 11.0795 9.88953 11.644 9.31623 11.2464L7.4412 9.94597C7.19331 9.77405 6.86474 9.77405 6.61684 9.94597L4.74181 11.2464C4.16851 11.644 3.42014 11.0795 3.64495 10.419L4.32444 8.42276C4.4285 8.11706 4.31729 7.77943 4.05194 7.5954L2.30836 6.38615C1.72596 5.98224 2.01178 5.06858 2.72054 5.06858H4.94832C5.25795 5.06858 5.53323 4.87149 5.633 4.57838L6.34434 2.48856Z" fill="#FFA858"/>
<path d="M18.0482 2.59413C18.2647 1.92778 19.2074 1.92778 19.4239 2.59413L20.0655 4.56882C20.1623 4.86682 20.44 5.06858 20.7534 5.06858H22.8297C23.5303 5.06858 23.8216 5.96513 23.2548 6.37696L21.575 7.59744C21.3215 7.78161 21.2154 8.10806 21.3123 8.40605L21.9539 10.3808C22.1704 11.0471 21.4077 11.6012 20.8409 11.1894L19.1612 9.969C18.9077 9.78481 18.5644 9.78481 18.3109 9.969L16.6312 11.1894C16.0644 11.6012 15.3017 11.0471 15.5182 10.3808L16.1598 8.40605C16.2566 8.10806 16.1506 7.78161 15.8971 7.59744L14.2173 6.37696C13.6505 5.96513 13.9418 5.06858 14.6424 5.06858H16.7187C17.0321 5.06858 17.3098 4.86682 17.4066 4.56882L18.0482 2.59413Z" fill="#FFA858"/>
<path d="M29.7594 2.48856C29.9819 1.83495 30.9063 1.83495 31.1287 2.48856L31.8401 4.57838C31.9398 4.87149 32.2151 5.06858 32.5248 5.06858H34.7525C35.4613 5.06858 35.7471 5.98224 35.1647 6.38615L33.4211 7.5954C33.1558 7.77943 33.0446 8.11706 33.1486 8.42276L33.8281 10.419C34.0529 11.0795 33.3046 11.644 32.7313 11.2464L30.8562 9.94597C30.6083 9.77405 30.2798 9.77405 30.0319 9.94597L28.1569 11.2464C27.5836 11.644 26.8352 11.0795 27.06 10.419L27.7395 8.42276C27.8435 8.11706 27.7323 7.77943 27.467 7.5954L25.7234 6.38615C25.141 5.98224 25.4268 5.06858 26.1356 5.06858H28.3634C28.673 5.06858 28.9483 4.87149 29.048 4.57838L29.7594 2.48856Z" fill="#FFA858"/>
<path d="M41.4637 2.59413C41.6802 1.92778 42.6229 1.92778 42.8394 2.59413L43.481 4.56882C43.5779 4.86682 43.8556 5.06858 44.1689 5.06858H46.2452C46.9458 5.06858 47.2371 5.96513 46.6703 6.37696L44.9905 7.59744C44.737 7.78161 44.631 8.10806 44.7278 8.40605L45.3694 10.3808C45.5859 11.0471 44.8232 11.6012 44.2564 11.1894L42.5767 9.969C42.3232 9.78481 41.9799 9.78481 41.7264 9.969L40.0467 11.1894C39.4799 11.6012 38.7172 11.0471 38.9337 10.3808L39.5754 8.40605C39.6722 8.10806 39.5661 7.78161 39.3126 7.59744L37.6328 6.37696C37.066 5.96513 37.3573 5.06858 38.058 5.06858H40.1343C40.4476 5.06858 40.7253 4.86682 40.8221 4.56882L41.4637 2.59413Z" fill="#FFA858"/>
<path d="M53.1739 2.48856C53.3964 1.83495 54.3208 1.83495 54.5433 2.48856L55.2546 4.57838C55.3544 4.87149 55.6297 5.06858 55.9393 5.06858H58.1671C58.8758 5.06858 59.1617 5.98224 58.5793 6.38615L56.8357 7.5954C56.5703 7.77943 56.4591 8.11706 56.5632 8.42276L57.2427 10.419C57.4675 11.0795 56.7191 11.644 56.1458 11.2464L54.2708 9.94597C54.0229 9.77405 53.6943 9.77405 53.4464 9.94597L51.5714 11.2464C50.9981 11.644 50.2497 11.0795 50.4745 10.419L51.154 8.42276C51.2581 8.11706 51.1469 7.77943 50.8815 7.5954L49.1379 6.38615C48.5556 5.98224 48.8414 5.06858 49.5501 5.06858H51.7779C52.0875 5.06858 52.3628 4.87149 52.4626 4.57838L53.1739 2.48856Z" fill="#FFA858"/>
</svg>
