<svg width="62" height="14" viewBox="0 0 62 14" fill="none" xmlns="http://www.w3.org/2000/svg">
<path d="M7.10795 2.25618C7.32979 1.60446 8.25153 1.60447 8.47336 2.25618L9.18264 4.33997C9.28213 4.63224 9.55661 4.82876 9.86535 4.82876H12.0867C12.7934 4.82876 13.0784 5.73978 12.4977 6.14253L10.7591 7.34828C10.4946 7.53177 10.3837 7.86844 10.4874 8.17325L11.165 10.1637C11.3891 10.8223 10.6429 11.3852 10.0713 10.9887L8.20165 9.69207C7.95447 9.52064 7.62685 9.52064 7.37967 9.69207L5.51006 10.9887C4.93841 11.3852 4.1922 10.8223 4.41636 10.1637L5.09389 8.17325C5.19764 7.86844 5.08676 7.53177 4.82217 7.34828L3.08363 6.14253C2.50291 5.73978 2.78791 4.82876 3.49461 4.82876H5.71597C6.0247 4.82876 6.29919 4.63224 6.39867 4.33997L7.10795 2.25618Z" fill="#FFA858"/>
<path d="M18.7785 2.36145C18.9944 1.69702 19.9344 1.69702 20.1503 2.36145L20.79 4.33044C20.8866 4.62758 21.1635 4.82876 21.4759 4.82876H23.5462C24.2448 4.82876 24.5353 5.72272 23.9701 6.13336L22.2952 7.35031C22.0424 7.53395 21.9366 7.85946 22.0332 8.15659L22.6729 10.1256C22.8888 10.7901 22.1284 11.3426 21.5632 10.9319L19.8883 9.71502C19.6355 9.53137 19.2933 9.53137 19.0405 9.71502L17.3656 10.9319C16.8005 11.3426 16.04 10.7901 16.2559 10.1256L16.8956 8.15659C16.9922 7.85946 16.8864 7.53395 16.6337 7.35031L14.9587 6.13336C14.3935 5.72272 14.684 4.82876 15.3826 4.82876H17.4529C17.7654 4.82876 18.0423 4.62758 18.1388 4.33044L18.7785 2.36145Z" fill="#FFA858"/>
<path d="M30.4551 2.25618C30.677 1.60446 31.5987 1.60447 31.8205 2.25618L32.5298 4.33997C32.6293 4.63224 32.9038 4.82876 33.2125 4.82876H35.4339C36.1406 4.82876 36.4256 5.73978 35.8449 6.14253L34.1063 7.34828C33.8417 7.53177 33.7308 7.86844 33.8346 8.17325L34.5121 10.1637C34.7363 10.8223 33.9901 11.3852 33.4184 10.9887L31.5488 9.69207C31.3016 9.52064 30.974 9.52064 30.7268 9.69207L28.8572 10.9887C28.2856 11.3852 27.5394 10.8223 27.7635 10.1637L28.4411 8.17325C28.5448 7.86844 28.4339 7.53177 28.1693 7.34828L26.4308 6.14253C25.8501 5.73978 26.1351 4.82876 26.8418 4.82876H29.0631C29.3719 4.82876 29.6464 4.63224 29.7458 4.33997L30.4551 2.25618Z" fill="#FFA858"/>
<path d="M42.1262 2.36145C42.3421 1.69702 43.2821 1.69702 43.4979 2.36145L44.1377 4.33044C44.2342 4.62758 44.5111 4.82876 44.8236 4.82876H46.8939C47.5925 4.82876 47.8829 5.72272 47.3178 6.13336L45.6428 7.35031C45.3901 7.53395 45.2843 7.85946 45.3808 8.15659L46.0206 10.1256C46.2365 10.7901 45.476 11.3426 44.9108 10.9319L43.236 9.71502C42.9832 9.53137 42.6409 9.53137 42.3882 9.71502L40.7133 10.9319C40.1481 11.3426 39.3877 10.7901 39.6035 10.1256L40.2433 8.15659C40.3398 7.85946 40.2341 7.53395 39.9813 7.35031L38.3064 6.13336C37.7412 5.72272 38.0317 4.82876 38.7303 4.82876H40.8006C41.113 4.82876 41.3899 4.62758 41.4865 4.33044L42.1262 2.36145Z" fill="#FFA858"/>
<path d="M53.8028 2.25618C54.0246 1.60446 54.9464 1.60447 55.1682 2.25618L55.8775 4.33997C55.977 4.63224 56.2514 4.82876 56.5602 4.82876H58.7815C59.4882 4.82876 59.7732 5.73978 59.1925 6.14253L57.454 7.34828C57.1894 7.53177 57.0785 7.86844 57.1822 8.17325L57.8598 10.1637C58.0839 10.8223 57.3377 11.3852 56.7661 10.9887L54.8965 9.69207C54.6493 9.52064 54.3217 9.52064 54.0745 9.69207L52.2049 10.9887C51.6332 11.3852 50.887 10.8223 51.1112 10.1637L51.7887 8.17325C51.8925 7.86844 51.7816 7.53177 51.517 7.34828L49.7784 6.14253C49.1977 5.73978 49.4827 4.82876 50.1894 4.82876H52.4108C52.7195 4.82876 52.994 4.63224 53.0935 4.33997L53.8028 2.25618Z" fill="#FFA858"/>
</svg>
