<svg width="124" height="28" viewBox="0 0 124 28" fill="none" xmlns="http://www.w3.org/2000/svg">
<path d="M13.9264 3.28166C14.234 2.37797 15.5121 2.37796 15.8197 3.28166L17.7879 9.0641C17.9259 9.46936 18.3065 9.74187 18.7346 9.74187H25.0014C25.9814 9.74187 26.3765 11.0051 25.5713 11.5636L20.5825 15.0235C20.2157 15.2779 20.0619 15.7448 20.2058 16.1674L22.13 21.8205C22.4408 22.7337 21.4061 23.5142 20.6134 22.9644L15.4429 19.3785C15.1002 19.1408 14.6459 19.1408 14.3031 19.3785L9.13263 22.9644C8.33996 23.5142 7.30524 22.7337 7.61607 21.8205L9.54027 16.1674C9.68414 15.7448 9.53039 15.2779 9.1635 15.0235L4.17474 11.5636C3.3695 11.0051 3.76469 9.74187 4.74463 9.74187H11.0115C11.4396 9.74187 11.8202 9.46936 11.9581 9.0641L13.9264 3.28166Z" fill="#FFA858"/>
<path d="M37.4854 3.42763C37.7848 2.50631 39.0882 2.50631 39.3875 3.42763L41.2146 9.05088C41.3485 9.46291 41.7324 9.74187 42.1657 9.74187H48.0782C49.0469 9.74187 49.4497 10.9815 48.666 11.5509L43.8826 15.0263C43.5321 15.281 43.3855 15.7323 43.5193 16.1443L45.3464 21.7677C45.6458 22.689 44.5913 23.4551 43.8076 22.8857L39.0243 19.4103C38.6738 19.1557 38.1992 19.1557 37.8487 19.4103L33.0654 22.8857C32.2817 23.4551 31.2272 22.689 31.5266 21.7677L33.3536 16.1443C33.4875 15.7323 33.3409 15.281 32.9904 15.0263L28.207 11.5509C27.4233 10.9815 27.8261 9.74187 28.7948 9.74187H34.7073C35.1405 9.74187 35.5245 9.4629 35.6584 9.05088L37.4854 3.42763Z" fill="#FFA858"/>
<path d="M61.0533 3.28166C61.3609 2.37797 62.639 2.37796 62.9466 3.28166L64.9149 9.0641C65.0528 9.46936 65.4334 9.74187 65.8615 9.74187H72.1284C73.1083 9.74187 73.5035 11.0051 72.6983 11.5636L67.7095 15.0235C67.3426 15.2779 67.1889 15.7448 67.3327 16.1674L69.2569 21.8205C69.5678 22.7337 68.533 23.5142 67.7404 22.9644L62.5699 19.3785C62.2271 19.1408 61.7728 19.1408 61.4301 19.3785L56.2596 22.9644C55.4669 23.5142 54.4322 22.7337 54.743 21.8205L56.6672 16.1674C56.8111 15.7448 56.6573 15.2779 56.2905 15.0235L51.3017 11.5636C50.4965 11.0051 50.8916 9.74187 51.8716 9.74187H58.1384C58.5665 9.74187 58.9471 9.46936 59.0851 9.0641L61.0533 3.28166Z" fill="#FFA858"/>
<path d="M84.6124 3.42763C84.9117 2.50631 86.2152 2.50631 86.5145 3.42763L88.3416 9.05088C88.4754 9.46291 88.8594 9.74187 89.2926 9.74187H95.2051C96.1738 9.74187 96.5766 10.9815 95.7929 11.5509L91.0095 15.0263C90.6591 15.281 90.5124 15.7323 90.6463 16.1443L92.4734 21.7677C92.7727 22.689 91.7182 23.4551 90.9345 22.8857L86.1512 19.4103C85.8007 19.1557 85.3261 19.1557 84.9756 19.4103L80.1924 22.8857C79.4087 23.4551 78.3542 22.689 78.6535 21.7677L80.4806 16.1443C80.6145 15.7323 80.4678 15.281 80.1173 15.0263L75.334 11.5509C74.5503 10.9815 74.953 9.74187 75.9218 9.74187H81.8343C82.2675 9.74187 82.6515 9.4629 82.7853 9.05088L84.6124 3.42763Z" fill="#FFA858"/>
<path d="M108.18 3.28166C108.488 2.37797 109.766 2.37796 110.074 3.28166L112.042 9.0641C112.18 9.46936 112.56 9.74187 112.988 9.74187H119.255C120.235 9.74187 120.63 11.0051 119.825 11.5636L114.836 15.0235C114.47 15.2779 114.316 15.7448 114.46 16.1674L116.384 21.8205C116.695 22.7337 115.66 23.5142 114.867 22.9644L109.697 19.3785C109.354 19.1408 108.9 19.1408 108.557 19.3785L103.387 22.9644C102.594 23.5142 101.559 22.7337 101.87 21.8205L103.794 16.1674C103.938 15.7448 103.784 15.2779 103.417 15.0235L98.4286 11.5636C97.6234 11.0051 98.0186 9.74187 98.9985 9.74187H105.265C105.693 9.74187 106.074 9.46936 106.212 9.0641L108.18 3.28166Z" fill="#FFA858"/>
</svg>
