<svg width="62" height="14" viewBox="0 0 62 14" fill="none" xmlns="http://www.w3.org/2000/svg">
<path d="M6.90574 2.48871C7.12822 1.8351 8.05263 1.8351 8.2751 2.48871L8.98644 4.57853C9.08621 4.87164 9.36149 5.06873 9.67112 5.06873H11.8989C12.6077 5.06873 12.8935 5.98239 12.3111 6.38631L10.5675 7.59555C10.3022 7.77958 10.1909 8.11722 10.295 8.42291L10.9745 10.4192C11.1993 11.0796 10.4509 11.6441 9.87763 11.2465L8.0026 9.94613C7.75471 9.7742 7.42614 9.7742 7.17824 9.94613L5.30321 11.2465C4.72991 11.6441 3.98154 11.0796 4.20636 10.4192L4.88584 8.42291C4.9899 8.11722 4.87869 7.77958 4.61334 7.59555L2.86976 6.3863C2.28736 5.98239 2.57319 5.06873 3.28194 5.06873H5.50972C5.81935 5.06873 6.09463 4.87164 6.1944 4.57853L6.90574 2.48871Z" fill="#FFA858"/>
<path d="M18.6102 2.59425C18.8267 1.9279 19.7694 1.9279 19.9859 2.59425L20.6275 4.56894C20.7243 4.86694 21.002 5.0687 21.3154 5.0687H23.3917C24.0923 5.0687 24.3836 5.96525 23.8168 6.37708L22.137 7.59756C21.8835 7.78173 21.7774 8.10818 21.8743 8.40617L22.5159 10.3809C22.7324 11.0473 21.9697 11.6014 21.4029 11.1895L19.7232 9.96912C19.4697 9.78494 19.1264 9.78494 18.8729 9.96912L17.1932 11.1895C16.6264 11.6014 15.8637 11.0473 16.0802 10.3809L16.7218 8.40617C16.8187 8.10818 16.7126 7.78173 16.4591 7.59756L14.7793 6.37708C14.2125 5.96525 14.5038 5.0687 15.2044 5.0687H17.2807C17.5941 5.0687 17.8718 4.86694 17.9686 4.56894L18.6102 2.59425Z" fill="#FFA858"/>
<path d="M30.3207 2.48868C30.5431 1.83507 31.4675 1.83507 31.69 2.48868L32.4014 4.5785C32.5011 4.87161 32.7764 5.0687 33.086 5.0687H35.3138C36.0226 5.0687 36.3084 5.98236 35.726 6.38627L33.9824 7.59552C33.7171 7.77955 33.6059 8.11719 33.7099 8.42288L34.3894 10.4191C34.6142 11.0796 33.8658 11.6441 33.2925 11.2465L31.4175 9.9461C31.1696 9.77417 30.8411 9.77417 30.5932 9.9461L28.7181 11.2465C28.1448 11.6441 27.3965 11.0796 27.6213 10.4191L28.3008 8.42288C28.4048 8.11719 28.2936 7.77955 28.0283 7.59552L26.2847 6.38627C25.7023 5.98236 25.9881 5.0687 26.6969 5.0687H28.9246C29.2343 5.0687 29.5096 4.87161 29.6093 4.5785L30.3207 2.48868Z" fill="#FFA858"/>
<path d="M42.025 2.59425C42.2415 1.9279 43.1842 1.9279 43.4007 2.59425L44.0423 4.56894C44.1391 4.86694 44.4168 5.0687 44.7302 5.0687H46.8065C47.5071 5.0687 47.7984 5.96525 47.2316 6.37708L45.5518 7.59756C45.2983 7.78173 45.1922 8.10818 45.2891 8.40617L45.9307 10.3809C46.1472 11.0473 45.3845 11.6014 44.8177 11.1895L43.138 9.96912C42.8845 9.78494 42.5412 9.78494 42.2877 9.96912L40.608 11.1895C40.0412 11.6014 39.2785 11.0473 39.495 10.3809L40.1366 8.40617C40.2335 8.10818 40.1274 7.78173 39.8739 7.59756L38.1941 6.37708C37.6273 5.96525 37.9186 5.0687 38.6192 5.0687H40.6955C41.0089 5.0687 41.2866 4.86694 41.3834 4.56894L42.025 2.59425Z" fill="#FFA858"/>
<path d="M53.7355 2.48868C53.9579 1.83507 54.8823 1.83507 55.1048 2.48868L55.8162 4.5785C55.9159 4.87161 56.1912 5.0687 56.5008 5.0687H58.7286C59.4374 5.0687 59.7232 5.98236 59.1408 6.38627L57.3972 7.59552C57.1319 7.77955 57.0207 8.11719 57.1247 8.42288L57.8042 10.4191C58.029 11.0796 57.2806 11.6441 56.7073 11.2465L54.8323 9.9461C54.5844 9.77417 54.2558 9.77417 54.008 9.9461L52.1329 11.2465C51.5596 11.6441 50.8113 11.0796 51.0361 10.4191L51.7156 8.42288C51.8196 8.11719 51.7084 7.77955 51.4431 7.59552L49.6995 6.38627C49.1171 5.98236 49.4029 5.0687 50.1116 5.0687H52.3394C52.6491 5.0687 52.9243 4.87161 53.0241 4.5785L53.7355 2.48868Z" fill="#FFA858"/>
</svg>
