<svg width="62" height="14" viewBox="0 0 62 14" fill="none" xmlns="http://www.w3.org/2000/svg">
<path d="M6.97109 2.36858C7.19345 1.71532 8.11736 1.71532 8.33971 2.36858L9.05067 4.45727C9.15039 4.75023 9.42552 4.94721 9.73498 4.94721L11.9616 4.94721C12.6699 4.94721 12.9556 5.86038 12.3735 6.26408L10.6309 7.47267C10.3657 7.6566 10.2545 7.99406 10.3585 8.29959L11.0376 10.2948C11.2623 10.9549 10.5144 11.5191 9.94138 11.1217L8.06736 9.82198C7.8196 9.65015 7.4912 9.65015 7.24344 9.82198L5.36943 11.1217C4.79643 11.5191 4.04846 10.9549 4.27316 10.2948L4.95228 8.29959C5.05628 7.99406 4.94513 7.6566 4.67992 7.47267L2.93728 6.26408C2.3552 5.86038 2.64087 4.94721 3.34924 4.94721L5.57582 4.94721C5.88528 4.94721 6.16042 4.75023 6.26013 4.45727L6.97109 2.36858Z" fill="#FFA858"/>
<path d="M18.6691 2.47385C18.8855 1.80785 19.8277 1.80785 20.0441 2.47385L20.6854 4.44747C20.7821 4.74532 21.0597 4.94697 21.3728 4.94697L23.448 4.94697C24.1483 4.94697 24.4394 5.84304 23.8729 6.25464L22.194 7.47446C21.9407 7.65854 21.8347 7.98481 21.9314 8.28264L22.5727 10.2563C22.7891 10.9223 22.0268 11.4761 21.4603 11.0645L19.7815 9.84475C19.5282 9.66066 19.1851 9.66066 18.9317 9.84475L17.2529 11.0645C16.6864 11.4761 15.9241 10.9223 16.1405 10.2563L16.7818 8.28264C16.8786 7.98481 16.7725 7.65854 16.5192 7.47446L14.8403 6.25464C14.2738 5.84304 14.5649 4.94697 15.2652 4.94697L17.3404 4.94697C17.6535 4.94697 17.9311 4.74532 18.0279 4.44747L18.6691 2.47385Z" fill="#FFA858"/>
<path d="M30.3732 2.36833C30.5955 1.71508 31.5195 1.71508 31.7418 2.36833L32.4528 4.45703C32.5525 4.74998 32.8276 4.94697 33.1371 4.94697L35.3637 4.94697C36.072 4.94697 36.3577 5.86014 35.7756 6.26383L34.033 7.47242C33.7678 7.65635 33.6566 7.99381 33.7606 8.29934L34.4397 10.2945C34.6644 10.9546 33.9165 11.5188 33.3435 11.1214L31.4695 9.82174C31.2217 9.64991 30.8933 9.64991 30.6455 9.82174L28.7715 11.1214C28.1985 11.5188 27.4506 10.9546 27.6753 10.2945L28.3544 8.29934C28.4584 7.99381 28.3472 7.65635 28.082 7.47242L26.3394 6.26383C25.7573 5.86014 26.043 4.94697 26.7513 4.94697L28.9779 4.94697C29.2874 4.94697 29.5625 4.74998 29.6622 4.45703L30.3732 2.36833Z" fill="#FFA858"/>
<path d="M42.0712 2.47385C42.2876 1.80785 43.2298 1.80785 43.4462 2.47385L44.0875 4.44747C44.1842 4.74532 44.4618 4.94697 44.7749 4.94697L46.8501 4.94697C47.5504 4.94697 47.8415 5.84304 47.275 6.25464L45.5961 7.47446C45.3428 7.65854 45.2368 7.98481 45.3335 8.28264L45.9748 10.2563C46.1912 10.9223 45.4289 11.4761 44.8624 11.0645L43.1836 9.84475C42.9303 9.66066 42.5872 9.66066 42.3338 9.84475L40.655 11.0645C40.0885 11.4761 39.3262 10.9223 39.5426 10.2563L40.1839 8.28264C40.2807 7.98481 40.1746 7.65854 39.9213 7.47446L38.2424 6.25464C37.6759 5.84304 37.967 4.94697 38.6673 4.94697L40.7425 4.94697C41.0556 4.94697 41.3332 4.74532 41.43 4.44747L42.0712 2.47385Z" fill="#FFA858"/>
<path d="M53.7754 2.36833C53.9978 1.71508 54.9217 1.71508 55.144 2.36833L55.855 4.45703C55.9547 4.74998 56.2298 4.94697 56.5393 4.94697L58.7659 4.94697C59.4743 4.94697 59.7599 5.86014 59.1778 6.26383L57.4352 7.47242C57.17 7.65635 57.0588 7.99381 57.1628 8.29934L57.842 10.2945C58.0667 10.9546 57.3187 11.5188 56.7457 11.1214L54.8717 9.82174C54.6239 9.64991 54.2955 9.64991 54.0478 9.82174L52.1737 11.1214C51.6008 11.5188 50.8528 10.9546 51.0775 10.2945L51.7566 8.29934C51.8606 7.99381 51.7495 7.65635 51.4842 7.47242L49.7416 6.26383C49.1595 5.86014 49.4452 4.94697 50.1536 4.94697L52.3801 4.94697C52.6896 4.94697 52.9647 4.74998 53.0645 4.45703L53.7754 2.36833Z" fill="#FFA858"/>
</svg>
