<svg width="62" height="14" viewBox="0 0 62 14" fill="none" xmlns="http://www.w3.org/2000/svg">
<path d="M6.57631 2.36931C6.79867 1.71605 7.72258 1.71606 7.94494 2.36931L8.65589 4.45801C8.75561 4.75096 9.03074 4.94795 9.34021 4.94795L11.5668 4.94795C12.2752 4.94795 12.5608 5.86111 11.9788 6.26481L10.2361 7.4734C9.9709 7.65733 9.85975 7.99479 9.96375 8.30032L10.6429 10.2955C10.8676 10.9556 10.1196 11.5198 9.5466 11.1224L7.67258 9.82271C7.42482 9.65088 7.09643 9.65088 6.84867 9.82271L4.97465 11.1224C4.40166 11.5198 3.65369 10.9556 3.87838 10.2955L4.5575 8.30032C4.6615 7.99479 4.55036 7.65733 4.28515 7.4734L2.5425 6.26481C1.96042 5.86111 2.24609 4.94795 2.95446 4.94795L5.18105 4.94795C5.49051 4.94795 5.76564 4.75096 5.86536 4.45801L6.57631 2.36931Z" fill="#FFA858"/>
<path d="M18.2745 2.47482C18.4909 1.80883 19.4331 1.80883 19.6494 2.47483L20.2907 4.44845C20.3875 4.74629 20.665 4.94795 20.9782 4.94795L23.0534 4.94795C23.7536 4.94795 24.0448 5.84401 23.4783 6.25562L21.7994 7.47544C21.546 7.65951 21.44 7.98579 21.5368 8.28362L22.1781 10.2573C22.3944 10.9233 21.6322 11.4771 21.0657 11.0655L19.3869 9.84572C19.1335 9.66164 18.7904 9.66164 18.5371 9.84572L16.8582 11.0655C16.2917 11.4771 15.5295 10.9233 15.7459 10.2573L16.3871 8.28362C16.4839 7.98579 16.3779 7.65951 16.1245 7.47544L14.4456 6.25562C13.8791 5.84401 14.1703 4.94795 14.8705 4.94795L16.9457 4.94795C17.2589 4.94795 17.5364 4.74629 17.6332 4.44845L18.2745 2.47482Z" fill="#FFA858"/>
<path d="M29.9787 2.36931C30.201 1.71605 31.1249 1.71606 31.3473 2.36931L32.0582 4.45801C32.158 4.75096 32.4331 4.94795 32.7425 4.94795L34.9691 4.94795C35.6775 4.94795 35.9632 5.86111 35.3811 6.26481L33.6384 7.4734C33.3732 7.65733 33.2621 7.99479 33.3661 8.30032L34.0452 10.2955C34.2699 10.9556 33.5219 11.5198 32.9489 11.1224L31.0749 9.82271C30.8272 9.65088 30.4988 9.65088 30.251 9.82271L28.377 11.1224C27.804 11.5198 27.056 10.9556 27.2807 10.2955L27.9598 8.30032C28.0638 7.99479 27.9527 7.65733 27.6875 7.4734L25.9448 6.26481C25.3628 5.86111 25.6484 4.94795 26.3568 4.94795L28.5834 4.94795C28.8929 4.94795 29.168 4.75096 29.2677 4.45801L29.9787 2.36931Z" fill="#FFA858"/>
<path d="M41.6768 2.47482C41.8932 1.80883 42.8354 1.80883 43.0518 2.47483L43.693 4.44845C43.7898 4.74629 44.0674 4.94795 44.3805 4.94795L46.4557 4.94795C47.156 4.94795 47.4471 5.84401 46.8806 6.25562L45.2017 7.47544C44.9484 7.65951 44.8424 7.98579 44.9391 8.28362L45.5804 10.2573C45.7968 10.9233 45.0345 11.4771 44.468 11.0655L42.7892 9.84572C42.5358 9.66164 42.1928 9.66164 41.9394 9.84572L40.2606 11.0655C39.6941 11.4771 38.9318 10.9233 39.1482 10.2573L39.7895 8.28362C39.8862 7.98579 39.7802 7.65951 39.5269 7.47544L37.848 6.25562C37.2815 5.84401 37.5726 4.94795 38.2729 4.94795L40.3481 4.94795C40.6612 4.94795 40.9388 4.74629 41.0356 4.44845L41.6768 2.47482Z" fill="#FFA858"/>
<path d="M53.3805 2.36931C53.6029 1.71605 54.5268 1.71606 54.7491 2.36931L55.4601 4.45801C55.5598 4.75096 55.8349 4.94795 56.1444 4.94795L58.371 4.94795C59.0794 4.94795 59.365 5.86111 58.7829 6.26481L57.0403 7.4734C56.7751 7.65733 56.6639 7.99479 56.7679 8.30032L57.4471 10.2955C57.6718 10.9556 56.9238 11.5198 56.3508 11.1224L54.4768 9.82271C54.229 9.65088 53.9006 9.65088 53.6529 9.82271L51.7788 11.1224C51.2059 11.5198 50.4579 10.9556 50.6826 10.2955L51.3617 8.30032C51.4657 7.99479 51.3546 7.65733 51.0893 7.4734L49.3467 6.26481C48.7646 5.86111 49.0503 4.94795 49.7587 4.94795L51.9852 4.94795C52.2947 4.94795 52.5698 4.75096 52.6696 4.45801L53.3805 2.36931Z" fill="#FFA858"/>
</svg>
