<svg width="62" height="14" viewBox="0 0 62 14" fill="none" xmlns="http://www.w3.org/2000/svg">
<path d="M6.89223 2.36931C7.11459 1.71605 8.0385 1.71606 8.26086 2.36931L8.97181 4.45801C9.07153 4.75096 9.34666 4.94795 9.65612 4.94795L11.8827 4.94795C12.5911 4.94795 12.8767 5.86111 12.2947 6.26481L10.552 7.4734C10.2868 7.65733 10.1757 7.99479 10.2797 8.30032L10.9588 10.2955C11.1835 10.9556 10.4355 11.5198 9.86252 11.1224L7.9885 9.82271C7.74074 9.65088 7.41235 9.65088 7.16459 9.82271L5.29057 11.1224C4.71757 11.5198 3.96961 10.9556 4.1943 10.2955L4.87342 8.30032C4.97742 7.99479 4.86627 7.65733 4.60107 7.4734L2.85842 6.26481C2.27634 5.86111 2.56201 4.94795 3.27038 4.94795L5.49697 4.94795C5.80643 4.94795 6.08156 4.75096 6.18128 4.45801L6.89223 2.36931Z" fill="#FFA858"/>
<path d="M18.5899 2.47482C18.8063 1.80883 19.7485 1.80883 19.9649 2.47483L20.6061 4.44845C20.7029 4.74629 20.9805 4.94795 21.2936 4.94795L23.3688 4.94795C24.0691 4.94795 24.3602 5.84401 23.7937 6.25562L22.1148 7.47544C21.8615 7.65951 21.7554 7.98579 21.8522 8.28362L22.4935 10.2573C22.7099 10.9233 21.9476 11.4771 21.3811 11.0655L19.7023 9.84572C19.4489 9.66164 19.1058 9.66164 18.8525 9.84572L17.1737 11.0655C16.6072 11.4771 15.8449 10.9233 16.0613 10.2573L16.7026 8.28362C16.7993 7.98579 16.6933 7.65951 16.44 7.47544L14.7611 6.25562C14.1946 5.84401 14.4857 4.94795 15.186 4.94795L17.2612 4.94795C17.5743 4.94795 17.8519 4.74629 17.9486 4.44845L18.5899 2.47482Z" fill="#FFA858"/>
<path d="M30.2941 2.36931C30.5164 1.71605 31.4404 1.71606 31.6627 2.36931L32.3737 4.45801C32.4734 4.75096 32.7485 4.94795 33.058 4.94795L35.2846 4.94795C35.9929 4.94795 36.2786 5.86111 35.6965 6.26481L33.9539 7.4734C33.6887 7.65733 33.5775 7.99479 33.6815 8.30032L34.3606 10.2955C34.5853 10.9556 33.8374 11.5198 33.2644 11.1224L31.3904 9.82271C31.1426 9.65088 30.8142 9.65088 30.5664 9.82271L28.6924 11.1224C28.1194 11.5198 27.3715 10.9556 27.5962 10.2955L28.2753 8.30032C28.3793 7.99479 28.2681 7.65733 28.0029 7.4734L26.2603 6.26481C25.6782 5.86111 25.9639 4.94795 26.6722 4.94795L28.8988 4.94795C29.2083 4.94795 29.4834 4.75096 29.5831 4.45801L30.2941 2.36931Z" fill="#FFA858"/>
<path d="M41.9922 2.47482C42.2086 1.80883 43.1508 1.80883 43.3672 2.47483L44.0085 4.44845C44.1052 4.74629 44.3828 4.94795 44.696 4.94795L46.7711 4.94795C47.4714 4.94795 47.7626 5.84401 47.196 6.25562L45.5171 7.47544C45.2638 7.65951 45.1578 7.98579 45.2546 8.28362L45.8958 10.2573C46.1122 10.9233 45.35 11.4771 44.7834 11.0655L43.1046 9.84572C42.8513 9.66164 42.5082 9.66164 42.2548 9.84572L40.576 11.0655C40.0095 11.4771 39.2472 10.9233 39.4636 10.2573L40.1049 8.28362C40.2017 7.98579 40.0957 7.65951 39.8423 7.47544L38.1634 6.25562C37.5969 5.84401 37.8881 4.94795 38.5883 4.94795L40.6635 4.94795C40.9767 4.94795 41.2542 4.74629 41.351 4.44845L41.9922 2.47482Z" fill="#FFA858"/>
<path d="M53.6964 2.36931C53.9188 1.71605 54.8427 1.71606 55.0651 2.36931L55.776 4.45801C55.8757 4.75096 56.1509 4.94795 56.4603 4.94795L58.6869 4.94795C59.3953 4.94795 59.6809 5.86111 59.0989 6.26481L57.3562 7.4734C57.091 7.65733 56.9799 7.99479 57.0839 8.30032L57.763 10.2955C57.9877 10.9556 57.2397 11.5198 56.6667 11.1224L54.7927 9.82271C54.5449 9.65088 54.2165 9.65088 53.9688 9.82271L52.0948 11.1224C51.5218 11.5198 50.7738 10.9556 50.9985 10.2955L51.6776 8.30032C51.7816 7.99479 51.6705 7.65733 51.4053 7.4734L49.6626 6.26481C49.0805 5.86111 49.3662 4.94795 50.0746 4.94795L52.3012 4.94795C52.6106 4.94795 52.8858 4.75096 52.9855 4.45801L53.6964 2.36931Z" fill="#FFA858"/>
</svg>
