<svg width="62" height="14" viewBox="0 0 62 14" fill="none" xmlns="http://www.w3.org/2000/svg">
<path d="M6.94584 2.46224C7.16768 1.81052 8.08942 1.81052 8.31125 2.46224L9.02053 4.54603C9.12002 4.83829 9.3945 5.03482 9.70324 5.03482H11.9246C12.6313 5.03482 12.9163 5.94584 12.3356 6.34858L10.597 7.55433C10.3324 7.73783 10.2216 8.0745 10.3253 8.37931L11.0028 10.3698C11.227 11.0284 10.4808 11.5912 9.90915 11.1948L8.03954 9.89813C7.79236 9.7267 7.46474 9.7267 7.21756 9.89813L5.34795 11.1948C4.7763 11.5912 4.03009 11.0284 4.25425 10.3698L4.93178 8.37931C5.03553 8.0745 4.92465 7.73783 4.66006 7.55433L2.92152 6.34858C2.3408 5.94584 2.6258 5.03482 3.3325 5.03482H5.55386C5.86259 5.03482 6.13708 4.83829 6.23656 4.54603L6.94584 2.46224Z" fill="#FFA858"/>
<path d="M18.6159 2.56751C18.8318 1.90308 19.7718 1.90308 19.9877 2.56751L20.6274 4.5365C20.724 4.83364 21.0009 5.03482 21.3133 5.03482H23.3836C24.0822 5.03482 24.3727 5.92878 23.8075 6.33942L22.1326 7.55637C21.8798 7.74001 21.774 8.06552 21.8706 8.36265L22.5104 10.3317C22.7262 10.9961 21.9658 11.5486 21.4006 11.138L19.7257 9.92108C19.473 9.73743 19.1307 9.73743 18.8779 9.92108L17.2031 11.138C16.6379 11.5486 15.8774 10.9961 16.0933 10.3317L16.733 8.36265C16.8296 8.06552 16.7238 7.74001 16.4711 7.55637L14.7961 6.33942C14.2309 5.92878 14.5214 5.03482 15.22 5.03482H17.2903C17.6028 5.03482 17.8797 4.83364 17.9762 4.53649L18.6159 2.56751Z" fill="#FFA858"/>
<path d="M30.293 2.46224C30.5148 1.81052 31.4366 1.81052 31.6584 2.46224L32.3677 4.54603C32.4672 4.83829 32.7417 5.03482 33.0504 5.03482H35.2718C35.9785 5.03482 36.2635 5.94584 35.6827 6.34858L33.9442 7.55433C33.6796 7.73783 33.5687 8.0745 33.6725 8.37931L34.35 10.3698C34.5742 11.0284 33.828 11.5912 33.2563 11.1948L31.3867 9.89813C31.1395 9.7267 30.8119 9.7267 30.5647 9.89813L28.6951 11.1948C28.1235 11.5912 27.3773 11.0284 27.6014 10.3698L28.2789 8.37931C28.3827 8.0745 28.2718 7.73783 28.0072 7.55433L26.2687 6.34858C25.688 5.94584 25.973 5.03482 26.6797 5.03482H28.901C29.2098 5.03482 29.4842 4.83829 29.5837 4.54603L30.293 2.46224Z" fill="#FFA858"/>
<path d="M41.9636 2.56751C42.1795 1.90308 43.1195 1.90308 43.3353 2.56751L43.9751 4.5365C44.0716 4.83364 44.3485 5.03482 44.661 5.03482H46.7313C47.4299 5.03482 47.7203 5.92878 47.1552 6.33942L45.4802 7.55637C45.2275 7.74001 45.1217 8.06552 45.2182 8.36265L45.858 10.3317C46.0739 10.9961 45.3134 11.5486 44.7482 11.138L43.0734 9.92108C42.8206 9.73743 42.4783 9.73743 42.2256 9.92108L40.5507 11.138C39.9855 11.5486 39.2251 10.9961 39.4409 10.3317L40.0807 8.36265C40.1772 8.06552 40.0715 7.74001 39.8187 7.55637L38.1438 6.33942C37.5786 5.92878 37.8691 5.03482 38.5677 5.03482H40.638C40.9504 5.03482 41.2273 4.83364 41.3239 4.53649L41.9636 2.56751Z" fill="#FFA858"/>
<path d="M53.6397 2.46224C53.8615 1.81052 54.7833 1.81052 55.0051 2.46224L55.7144 4.54603C55.8139 4.83829 56.0884 5.03482 56.3971 5.03482H58.6184C59.3251 5.03482 59.6101 5.94584 59.0294 6.34858L57.2909 7.55433C57.0263 7.73783 56.9154 8.0745 57.0192 8.37931L57.6967 10.3698C57.9209 11.0284 57.1746 11.5912 56.603 11.1948L54.7334 9.89813C54.4862 9.7267 54.1586 9.7267 53.9114 9.89813L52.0418 11.1948C51.4701 11.5912 50.7239 11.0284 50.9481 10.3698L51.6256 8.37931C51.7294 8.0745 51.6185 7.73783 51.3539 7.55433L49.6154 6.34858C49.0347 5.94584 49.3196 5.03482 50.0264 5.03482H52.2477C52.5564 5.03482 52.8309 4.83829 52.9304 4.54603L53.6397 2.46224Z" fill="#FFA858"/>
</svg>
