<svg width="61" height="14" viewBox="0 0 61 14" fill="none" xmlns="http://www.w3.org/2000/svg">
<path d="M6.2603 2.46297C6.48213 1.81125 7.40387 1.81125 7.6257 2.46297L8.33499 4.54676C8.43447 4.83903 8.70896 5.03555 9.01769 5.03555H11.239C11.9457 5.03555 12.2307 5.94657 11.65 6.34931L9.91148 7.55507C9.6469 7.73857 9.53602 8.07523 9.63977 8.38004L10.3173 10.3705C10.5415 11.0291 9.79525 11.592 9.2236 11.1955L7.35399 9.89886C7.10681 9.72743 6.77919 9.72743 6.53201 9.89886L4.6624 11.1955C4.09075 11.592 3.34454 11.0291 3.56871 10.3705L4.24623 8.38004C4.34999 8.07523 4.2391 7.73857 3.97452 7.55507L2.23597 6.34932C1.65526 5.94657 1.94025 5.03555 2.64696 5.03555H4.86831C5.17704 5.03555 5.45153 4.83903 5.55101 4.54676L6.2603 2.46297Z" fill="#FFA858"/>
<path d="M17.9306 2.56824C18.1465 1.90381 19.0865 1.90381 19.3024 2.56824L19.9421 4.53723C20.0387 4.83437 20.3156 5.03555 20.628 5.03555H22.6983C23.3969 5.03555 23.6874 5.92951 23.1222 6.34015L21.4473 7.5571C21.1945 7.74074 21.0887 8.06625 21.1853 8.36338L21.825 10.3324C22.0409 10.9969 21.2805 11.5494 20.7153 11.1387L19.0404 9.92181C18.7876 9.73816 18.4454 9.73816 18.1926 9.92181L16.5177 11.1387C15.9526 11.5493 15.1921 10.9969 15.408 10.3324L16.0477 8.36338C16.1443 8.06625 16.0385 7.74074 15.7858 7.5571L14.1108 6.34015C13.5456 5.92951 13.8361 5.03555 14.5347 5.03555H16.605C16.9175 5.03555 17.1944 4.83437 17.2909 4.53723L17.9306 2.56824Z" fill="#FFA858"/>
<path d="M29.6073 2.46297C29.8292 1.81125 30.7509 1.81125 30.9727 2.46297L31.682 4.54676C31.7815 4.83903 32.056 5.03555 32.3647 5.03555H34.5861C35.2928 5.03555 35.5778 5.94657 34.9971 6.34931L33.2585 7.55507C32.9939 7.73857 32.8831 8.07523 32.9868 8.38004L33.6643 10.3705C33.8885 11.0291 33.1423 11.592 32.5706 11.1955L30.701 9.89886C30.4539 9.72743 30.1262 9.72743 29.8791 9.89886L28.0094 11.1955C27.4378 11.592 26.6916 11.0291 26.9158 10.3705L27.5933 8.38004C27.697 8.07523 27.5861 7.73857 27.3216 7.55507L25.583 6.34932C25.0023 5.94657 25.2873 5.03555 25.994 5.03555H28.2154C28.5241 5.03555 28.7986 4.83903 28.8981 4.54676L29.6073 2.46297Z" fill="#FFA858"/>
<path d="M41.2777 2.56824C41.4936 1.90381 42.4336 1.90381 42.6494 2.56824L43.2892 4.53723C43.3857 4.83437 43.6626 5.03555 43.975 5.03555H46.0453C46.744 5.03555 47.0344 5.92951 46.4692 6.34015L44.7943 7.5571C44.5416 7.74074 44.4358 8.06625 44.5323 8.36338L45.1721 10.3324C45.388 10.9969 44.6275 11.5494 44.0623 11.1387L42.3875 9.92181C42.1347 9.73816 41.7924 9.73816 41.5397 9.92181L39.8648 11.1387C39.2996 11.5493 38.5391 10.9969 38.755 10.3324L39.3948 8.36338C39.4913 8.06625 39.3856 7.74074 39.1328 7.5571L37.4579 6.34015C36.8927 5.92951 37.1832 5.03555 37.8818 5.03555H39.9521C40.2645 5.03555 40.5414 4.83437 40.6379 4.53723L41.2777 2.56824Z" fill="#FFA858"/>
<path d="M52.955 2.46297C53.1768 1.81125 54.0986 1.81125 54.3204 2.46297L55.0297 4.54676C55.1292 4.83903 55.4037 5.03555 55.7124 5.03555H57.9337C58.6405 5.03555 58.9254 5.94657 58.3447 6.34931L56.6062 7.55507C56.3416 7.73857 56.2307 8.07523 56.3345 8.38004L57.012 10.3705C57.2362 11.0291 56.4899 11.592 55.9183 11.1955L54.0487 9.89886C53.8015 9.72743 53.4739 9.72743 53.2267 9.89886L51.3571 11.1955C50.7855 11.592 50.0392 11.0291 50.2634 10.3705L50.9409 8.38004C51.0447 8.07523 50.9338 7.73857 50.6692 7.55507L48.9307 6.34932C48.35 5.94657 48.635 5.03555 49.3417 5.03555H51.563C51.8717 5.03555 52.1462 4.83903 52.2457 4.54676L52.955 2.46297Z" fill="#FFA858"/>
</svg>
