<svg width="62" height="14" viewBox="0 0 62 14" fill="none" xmlns="http://www.w3.org/2000/svg">
<path d="M6.94548 2.46285C7.16731 1.81113 8.08905 1.81113 8.31088 2.46285L9.02017 4.54664C9.11965 4.8389 9.39414 5.03543 9.70287 5.03543H11.9242C12.6309 5.03543 12.9159 5.94645 12.3352 6.34919L10.5967 7.55494C10.3321 7.73844 10.2212 8.07511 10.3249 8.37992L11.0025 10.3704C11.2266 11.029 10.4804 11.5918 9.90878 11.1954L8.03917 9.89874C7.79199 9.72731 7.46437 9.72731 7.21719 9.89874L5.34758 11.1954C4.77593 11.5918 4.02972 11.029 4.25389 10.3704L4.93141 8.37992C5.03517 8.07511 4.92428 7.73844 4.6597 7.55494L2.92115 6.34919C2.34044 5.94645 2.62543 5.03543 3.33214 5.03543H5.55349C5.86222 5.03543 6.13671 4.8389 6.23619 4.54664L6.94548 2.46285Z" fill="#FFA858"/>
<path d="M18.6155 2.56824C18.8313 1.90381 19.7713 1.90381 19.9872 2.56824L20.6269 4.53723C20.7235 4.83437 21.0004 5.03555 21.3128 5.03555H23.3831C24.0817 5.03555 24.3722 5.92951 23.807 6.34015L22.1321 7.5571C21.8793 7.74074 21.7736 8.06625 21.8701 8.36338L22.5099 10.3324C22.7257 10.9969 21.9653 11.5494 21.4001 11.1387L19.7252 9.92181C19.4725 9.73816 19.1302 9.73816 18.8774 9.92181L17.2026 11.1387C16.6374 11.5493 15.8769 10.9969 16.0928 10.3324L16.7326 8.36338C16.8291 8.06625 16.7233 7.74074 16.4706 7.5571L14.7956 6.34015C14.2305 5.92951 14.5209 5.03555 15.2195 5.03555H17.2898C17.6023 5.03555 17.8792 4.83437 17.9757 4.53723L18.6155 2.56824Z" fill="#FFA858"/>
<path d="M30.2928 2.46297C30.5146 1.81125 31.4363 1.81125 31.6582 2.46297L32.3675 4.54676C32.4669 4.83903 32.7414 5.03555 33.0502 5.03555H35.2715C35.9782 5.03555 36.2632 5.94657 35.6825 6.34931L33.944 7.55507C33.6794 7.73857 33.5685 8.07523 33.6722 8.38004L34.3498 10.3705C34.5739 11.0291 33.8277 11.592 33.2561 11.1955L31.3865 9.89886C31.1393 9.72743 30.8117 9.72743 30.5645 9.89886L28.6949 11.1955C28.1232 11.592 27.377 11.0291 27.6012 10.3705L28.2787 8.38004C28.3825 8.07523 28.2716 7.73857 28.007 7.55507L26.2684 6.34932C25.6877 5.94657 25.9727 5.03555 26.6794 5.03555H28.9008C29.2095 5.03555 29.484 4.83903 29.5835 4.54676L30.2928 2.46297Z" fill="#FFA858"/>
<path d="M41.9631 2.56824C42.179 1.90381 43.119 1.90381 43.3349 2.56824L43.9746 4.53723C44.0711 4.83437 44.348 5.03555 44.6605 5.03555H46.7308C47.4294 5.03555 47.7199 5.92951 47.1547 6.34015L45.4797 7.5571C45.227 7.74074 45.1212 8.06625 45.2178 8.36338L45.8575 10.3324C46.0734 10.9969 45.3129 11.5494 44.7477 11.1387L43.0729 9.92181C42.8201 9.73816 42.4778 9.73816 42.2251 9.92181L40.5502 11.1387C39.985 11.5493 39.2246 10.9969 39.4404 10.3324L40.0802 8.36338C40.1767 8.06625 40.071 7.74074 39.8182 7.5571L38.1433 6.34015C37.5781 5.92951 37.8686 5.03555 38.5672 5.03555H40.6375C40.9499 5.03555 41.2268 4.83437 41.3234 4.53723L41.9631 2.56824Z" fill="#FFA858"/>
<path d="M53.6396 2.46297C53.8614 1.81125 54.7831 1.81125 55.005 2.46297L55.7143 4.54676C55.8137 4.83903 56.0882 5.03555 56.397 5.03555H58.6183C59.325 5.03555 59.61 5.94657 59.0293 6.34931L57.2908 7.55507C57.0262 7.73857 56.9153 8.07523 57.019 8.38004L57.6966 10.3705C57.9207 11.0291 57.1745 11.592 56.6029 11.1955L54.7333 9.89886C54.4861 9.72743 54.1585 9.72743 53.9113 9.89886L52.0417 11.1955C51.47 11.592 50.7238 11.0291 50.948 10.3705L51.6255 8.38004C51.7293 8.07523 51.6184 7.73857 51.3538 7.55507L49.6152 6.34932C49.0345 5.94657 49.3195 5.03555 50.0262 5.03555H52.2476C52.5563 5.03555 52.8308 4.83903 52.9303 4.54676L53.6396 2.46297Z" fill="#FFA858"/>
</svg>
