<svg width="61" height="14" viewBox="0 0 61 14" fill="none" xmlns="http://www.w3.org/2000/svg">
<path d="M6.26079 2.46224C6.48262 1.81052 7.40436 1.81052 7.62619 2.46224L8.33547 4.54603C8.43496 4.83829 8.70944 5.03482 9.01818 5.03482H11.2395C11.9462 5.03482 12.2312 5.94584 11.6505 6.34858L9.91197 7.55433C9.64739 7.73783 9.5365 8.0745 9.64026 8.37931L10.3178 10.3698C10.5419 11.0284 9.79573 11.5912 9.22409 11.1948L7.35448 9.89813C7.1073 9.7267 6.77968 9.7267 6.5325 9.89813L4.66289 11.1948C4.09124 11.5912 3.34503 11.0284 3.56919 10.3698L4.24672 8.37931C4.35047 8.0745 4.23959 7.73783 3.97501 7.55433L2.23646 6.34858C1.65574 5.94584 1.94074 5.03482 2.64745 5.03482H4.8688C5.17753 5.03482 5.45202 4.83829 5.5515 4.54603L6.26079 2.46224Z" fill="#FFA858"/>
<path d="M17.9311 2.56751C18.147 1.90308 19.087 1.90308 19.3029 2.56751L19.9426 4.5365C20.0392 4.83364 20.3161 5.03482 20.6285 5.03482H22.6988C23.3974 5.03482 23.6879 5.92878 23.1227 6.33942L21.4477 7.55637C21.195 7.74001 21.0892 8.06552 21.1858 8.36265L21.8255 10.3317C22.0414 10.9961 21.2809 11.5486 20.7158 11.138L19.0409 9.92108C18.7881 9.73743 18.4459 9.73743 18.1931 9.92108L16.5182 11.138C15.9531 11.5486 15.1926 10.9961 15.4085 10.3317L16.0482 8.36265C16.1448 8.06552 16.039 7.74001 15.7863 7.55637L14.1113 6.33942C13.5461 5.92878 13.8366 5.03482 14.5352 5.03482H16.6055C16.9179 5.03482 17.1948 4.83364 17.2914 4.53649L17.9311 2.56751Z" fill="#FFA858"/>
<path d="M29.6077 2.46224C29.8295 1.81052 30.7513 1.81052 30.9731 2.46224L31.6824 4.54603C31.7819 4.83829 32.0564 5.03482 32.3651 5.03482H34.5865C35.2932 5.03482 35.5782 5.94584 34.9974 6.34858L33.2589 7.55433C32.9943 7.73783 32.8834 8.0745 32.9872 8.37931L33.6647 10.3698C33.8889 11.0284 33.1427 11.5912 32.571 11.1948L30.7014 9.89813C30.4542 9.7267 30.1266 9.7267 29.8794 9.89813L28.0098 11.1948C27.4382 11.5912 26.692 11.0284 26.9161 10.3698L27.5936 8.37931C27.6974 8.0745 27.5865 7.73783 27.3219 7.55433L25.5834 6.34858C25.0027 5.94584 25.2877 5.03482 25.9944 5.03482H28.2157C28.5245 5.03482 28.7989 4.83829 28.8984 4.54603L29.6077 2.46224Z" fill="#FFA858"/>
<path d="M41.278 2.56751C41.4939 1.90308 42.4339 1.90308 42.6498 2.56751L43.2895 4.5365C43.3861 4.83364 43.663 5.03482 43.9754 5.03482H46.0457C46.7443 5.03482 47.0348 5.92878 46.4696 6.33942L44.7947 7.55637C44.5419 7.74001 44.4362 8.06552 44.5327 8.36265L45.1725 10.3317C45.3883 10.9961 44.6279 11.5486 44.0627 11.138L42.3878 9.92108C42.1351 9.73743 41.7928 9.73743 41.54 9.92108L39.8652 11.138C39.3 11.5486 38.5395 10.9961 38.7554 10.3317L39.3951 8.36265C39.4917 8.06552 39.3859 7.74001 39.1332 7.55637L37.4582 6.33942C36.8931 5.92878 37.1835 5.03482 37.8821 5.03482H39.9524C40.2649 5.03482 40.5418 4.83364 40.6383 4.53649L41.278 2.56751Z" fill="#FFA858"/>
<path d="M52.9556 2.46224C53.1774 1.81052 54.0992 1.81052 54.321 2.46224L55.0303 4.54603C55.1298 4.83829 55.4043 5.03482 55.713 5.03482H57.9344C58.6411 5.03482 58.9261 5.94584 58.3453 6.34858L56.6068 7.55433C56.3422 7.73783 56.2313 8.0745 56.3351 8.37931L57.0126 10.3698C57.2368 11.0284 56.4906 11.5912 55.9189 11.1948L54.0493 9.89813C53.8021 9.7267 53.4745 9.7267 53.2273 9.89813L51.3577 11.1948C50.7861 11.5912 50.0399 11.0284 50.264 10.3698L50.9415 8.37931C51.0453 8.0745 50.9344 7.73783 50.6698 7.55433L48.9313 6.34858C48.3506 5.94584 48.6356 5.03482 49.3423 5.03482H51.5636C51.8724 5.03482 52.1468 4.83829 52.2463 4.54603L52.9556 2.46224Z" fill="#FFA858"/>
</svg>
