<svg width="61" height="14" viewBox="0 0 61 14" fill="none" xmlns="http://www.w3.org/2000/svg">
<path d="M6.34434 2.48868C6.56682 1.83507 7.49123 1.83507 7.7137 2.48868L8.42504 4.5785C8.52481 4.87161 8.80009 5.0687 9.10972 5.0687H11.3375C12.0463 5.0687 12.3321 5.98236 11.7497 6.38627L10.0061 7.59552C9.74075 7.77955 9.62955 8.11719 9.7336 8.42288L10.4131 10.4191C10.6379 11.0796 9.88953 11.6441 9.31623 11.2465L7.4412 9.9461C7.19331 9.77417 6.86474 9.77417 6.61684 9.9461L4.74181 11.2465C4.16851 11.6441 3.42014 11.0796 3.64495 10.4191L4.32444 8.42288C4.4285 8.11719 4.31729 7.77955 4.05194 7.59552L2.30836 6.38627C1.72596 5.98236 2.01178 5.0687 2.72054 5.0687H4.94832C5.25795 5.0687 5.53323 4.87161 5.633 4.5785L6.34434 2.48868Z" fill="#FFA858"/>
<path d="M18.0483 2.59422C18.2648 1.92787 19.2075 1.92787 19.424 2.59422L20.0656 4.56891C20.1624 4.86691 20.4401 5.06867 20.7535 5.06867H22.8298C23.5304 5.06867 23.8217 5.96522 23.2549 6.37705L21.5751 7.59753C21.3216 7.7817 21.2156 8.10815 21.3124 8.40614L21.954 10.3809C22.1705 11.0472 21.4078 11.6013 20.841 11.1895L19.1613 9.96909C18.9078 9.78491 18.5645 9.78491 18.311 9.96909L16.6313 11.1895C16.0645 11.6013 15.3018 11.0472 15.5183 10.3809L16.16 8.40614C16.2568 8.10815 16.1507 7.7817 15.8972 7.59753L14.2174 6.37705C13.6506 5.96522 13.9419 5.06867 14.6426 5.06867H16.7188C17.0322 5.06867 17.3099 4.86691 17.4067 4.56891L18.0483 2.59422Z" fill="#FFA858"/>
<path d="M29.7594 2.48865C29.9819 1.83504 30.9063 1.83504 31.1287 2.48865L31.8401 4.57847C31.9398 4.87158 32.2151 5.06867 32.5248 5.06867H34.7525C35.4613 5.06867 35.7471 5.98233 35.1647 6.38624L33.4211 7.59549C33.1558 7.77952 33.0446 8.11716 33.1486 8.42285L33.8281 10.4191C34.0529 11.0796 33.3046 11.6441 32.7313 11.2465L30.8562 9.94607C30.6083 9.77414 30.2798 9.77414 30.0319 9.94607L28.1569 11.2465C27.5836 11.6441 26.8352 11.0796 27.06 10.4191L27.7395 8.42285C27.8435 8.11716 27.7323 7.77952 27.467 7.59549L25.7234 6.38624C25.141 5.98233 25.4268 5.06867 26.1356 5.06867H28.3634C28.673 5.06867 28.9483 4.87158 29.048 4.57847L29.7594 2.48865Z" fill="#FFA858"/>
<path d="M41.4637 2.59422C41.6802 1.92787 42.6229 1.92787 42.8394 2.59422L43.481 4.56891C43.5779 4.86691 43.8556 5.06867 44.1689 5.06867H46.2452C46.9458 5.06867 47.2371 5.96522 46.6703 6.37705L44.9905 7.59753C44.737 7.7817 44.631 8.10815 44.7278 8.40614L45.3694 10.3809C45.5859 11.0472 44.8232 11.6013 44.2564 11.1895L42.5767 9.96909C42.3232 9.78491 41.9799 9.78491 41.7264 9.96909L40.0467 11.1895C39.4799 11.6013 38.7172 11.0472 38.9337 10.3809L39.5754 8.40614C39.6722 8.10815 39.5661 7.7817 39.3126 7.59753L37.6328 6.37705C37.066 5.96522 37.3573 5.06867 38.058 5.06867H40.1343C40.4476 5.06867 40.7253 4.86691 40.8221 4.56891L41.4637 2.59422Z" fill="#FFA858"/>
<path d="M53.1742 2.48865C53.3967 1.83504 54.3211 1.83504 54.5435 2.48865L55.2549 4.57847C55.3546 4.87158 55.6299 5.06867 55.9396 5.06867H58.1673C58.8761 5.06867 59.1619 5.98233 58.5795 6.38624L56.8359 7.59549C56.5706 7.77952 56.4594 8.11716 56.5634 8.42285L57.2429 10.4191C57.4677 11.0796 56.7194 11.6441 56.1461 11.2465L54.271 9.94607C54.0231 9.77414 53.6946 9.77414 53.4467 9.94607L51.5716 11.2465C50.9983 11.6441 50.25 11.0796 50.4748 10.4191L51.1543 8.42285C51.2583 8.11716 51.1471 7.77952 50.8818 7.59549L49.1382 6.38624C48.5558 5.98233 48.8416 5.06867 49.5504 5.06867H51.7782C52.0878 5.06867 52.3631 4.87158 52.4628 4.57847L53.1742 2.48865Z" fill="#FFA858"/>
</svg>
