<svg width="62" height="14" viewBox="0 0 62 14" fill="none" xmlns="http://www.w3.org/2000/svg">
<path d="M6.97807 2.46285C7.1999 1.81113 8.12164 1.81113 8.34348 2.46285L9.05276 4.54664C9.15224 4.8389 9.42673 5.03543 9.73546 5.03543H11.9568C12.6635 5.03543 12.9485 5.94645 12.3678 6.34919L10.6293 7.55494C10.3647 7.73844 10.2538 8.07511 10.3575 8.37992L11.0351 10.3704C11.2592 11.029 10.513 11.5918 9.94137 11.1954L8.07176 9.89874C7.82458 9.72731 7.49696 9.72731 7.24978 9.89874L5.38017 11.1954C4.80853 11.5918 4.06232 11.029 4.28648 10.3704L4.96401 8.37992C5.06776 8.07511 4.95688 7.73844 4.69229 7.55494L2.95374 6.34919C2.37303 5.94645 2.65803 5.03543 3.36473 5.03543H5.58608C5.89482 5.03543 6.1693 4.8389 6.26879 4.54664L6.97807 2.46285Z" fill="#FFA858"/>
<path d="M18.6477 2.56824C18.8636 1.90381 19.8035 1.90381 20.0194 2.56824L20.6592 4.53723C20.7557 4.83437 21.0326 5.03555 21.345 5.03555H23.4153C24.114 5.03555 24.4044 5.92951 23.8392 6.34015L22.1643 7.5571C21.9115 7.74074 21.8058 8.06625 21.9023 8.36338L22.5421 10.3324C22.758 10.9969 21.9975 11.5494 21.4323 11.1387L19.7575 9.92181C19.5047 9.73816 19.1624 9.73816 18.9097 9.92181L17.2348 11.1387C16.6696 11.5493 15.9091 10.9969 16.125 10.3324L16.7648 8.36338C16.8613 8.06625 16.7556 7.74074 16.5028 7.5571L14.8279 6.34015C14.2627 5.92951 14.5532 5.03555 15.2518 5.03555H17.3221C17.6345 5.03555 17.9114 4.83437 18.0079 4.53723L18.6477 2.56824Z" fill="#FFA858"/>
<path d="M30.3252 2.46297C30.5471 1.81125 31.4688 1.81125 31.6906 2.46297L32.3999 4.54676C32.4994 4.83903 32.7739 5.03555 33.0826 5.03555H35.304C36.0107 5.03555 36.2957 5.94657 35.715 6.34931L33.9764 7.55507C33.7118 7.73857 33.601 8.07523 33.7047 8.38004L34.3822 10.3705C34.6064 11.0291 33.8602 11.592 33.2885 11.1955L31.4189 9.89886C31.1718 9.72743 30.8441 9.72743 30.597 9.89886L28.7273 11.1955C28.1557 11.592 27.4095 11.0291 27.6336 10.3705L28.3112 8.38004C28.4149 8.07523 28.304 7.73857 28.0395 7.55507L26.3009 6.34932C25.7202 5.94657 26.0052 5.03555 26.7119 5.03555H28.9333C29.242 5.03555 29.5165 4.83903 29.616 4.54676L30.3252 2.46297Z" fill="#FFA858"/>
<path d="M41.9946 2.56824C42.2105 1.90381 43.1505 1.90381 43.3664 2.56824L44.0061 4.53723C44.1026 4.83437 44.3795 5.03555 44.692 5.03555H46.7623C47.4609 5.03555 47.7513 5.92951 47.1862 6.34015L45.5112 7.5571C45.2585 7.74074 45.1527 8.06625 45.2493 8.36338L45.889 10.3324C46.1049 10.9969 45.3444 11.5494 44.7792 11.1387L43.1044 9.92181C42.8516 9.73816 42.5093 9.73816 42.2566 9.92181L40.5817 11.1387C40.0165 11.5493 39.2561 10.9969 39.4719 10.3324L40.1117 8.36338C40.2082 8.06625 40.1025 7.74074 39.8497 7.5571L38.1748 6.34015C37.6096 5.92951 37.9001 5.03555 38.5987 5.03555H40.669C40.9814 5.03555 41.2583 4.83437 41.3549 4.53723L41.9946 2.56824Z" fill="#FFA858"/>
<path d="M53.6719 2.46297C53.8938 1.81125 54.8155 1.81125 55.0373 2.46297L55.7466 4.54676C55.8461 4.83903 56.1206 5.03555 56.4293 5.03555H58.6507C59.3574 5.03555 59.6424 5.94657 59.0617 6.34931L57.3231 7.55507C57.0585 7.73857 56.9476 8.07523 57.0514 8.38004L57.7289 10.3705C57.9531 11.0291 57.2069 11.592 56.6352 11.1955L54.7656 9.89886C54.5184 9.72743 54.1908 9.72743 53.9436 9.89886L52.074 11.1955C51.5024 11.592 50.7562 11.0291 50.9803 10.3705L51.6579 8.38004C51.7616 8.07523 51.6507 7.73857 51.3861 7.55507L49.6476 6.34932C49.0669 5.94657 49.3519 5.03555 50.0586 5.03555H52.2799C52.5887 5.03555 52.8632 4.83903 52.9626 4.54676L53.6719 2.46297Z" fill="#FFA858"/>
</svg>
