<svg width="62" height="14" viewBox="0 0 62 14" fill="none" xmlns="http://www.w3.org/2000/svg">
<path d="M6.97109 2.36931C7.19345 1.71605 8.11736 1.71606 8.33971 2.36931L9.05067 4.45801C9.15039 4.75096 9.42552 4.94795 9.73498 4.94795L11.9616 4.94795C12.6699 4.94795 12.9556 5.86111 12.3735 6.26481L10.6309 7.4734C10.3657 7.65733 10.2545 7.99479 10.3585 8.30032L11.0376 10.2955C11.2623 10.9556 10.5144 11.5198 9.94138 11.1224L8.06736 9.82271C7.8196 9.65088 7.4912 9.65088 7.24344 9.82271L5.36943 11.1224C4.79643 11.5198 4.04846 10.9556 4.27316 10.2955L4.95228 8.30032C5.05628 7.99479 4.94513 7.65733 4.67992 7.4734L2.93728 6.26481C2.3552 5.86111 2.64087 4.94795 3.34924 4.94795L5.57582 4.94795C5.88528 4.94795 6.16042 4.75096 6.26013 4.45801L6.97109 2.36931Z" fill="#FFA858"/>
<path d="M18.669 2.47482C18.8854 1.80883 19.8276 1.80883 20.044 2.47483L20.6852 4.44845C20.782 4.74629 21.0596 4.94795 21.3727 4.94795L23.4479 4.94795C24.1482 4.94795 24.4393 5.84401 23.8728 6.25562L22.1939 7.47544C21.9406 7.65951 21.8345 7.98579 21.9313 8.28362L22.5726 10.2573C22.789 10.9233 22.0267 11.4771 21.4602 11.0655L19.7814 9.84572C19.528 9.66164 19.1849 9.66164 18.9316 9.84572L17.2528 11.0655C16.6863 11.4771 15.924 10.9233 16.1404 10.2573L16.7817 8.28362C16.8784 7.98579 16.7724 7.65951 16.5191 7.47544L14.8402 6.25562C14.2737 5.84401 14.5648 4.94795 15.2651 4.94795L17.3403 4.94795C17.6534 4.94795 17.931 4.74629 18.0277 4.44845L18.669 2.47482Z" fill="#FFA858"/>
<path d="M30.3732 2.36931C30.5955 1.71605 31.5195 1.71606 31.7418 2.36931L32.4528 4.45801C32.5525 4.75096 32.8276 4.94795 33.1371 4.94795L35.3637 4.94795C36.072 4.94795 36.3577 5.86111 35.7756 6.26481L34.033 7.4734C33.7678 7.65733 33.6566 7.99479 33.7606 8.30032L34.4397 10.2955C34.6644 10.9556 33.9165 11.5198 33.3435 11.1224L31.4695 9.82271C31.2217 9.65088 30.8933 9.65088 30.6455 9.82271L28.7715 11.1224C28.1985 11.5198 27.4506 10.9556 27.6753 10.2955L28.3544 8.30032C28.4584 7.99479 28.3472 7.65733 28.082 7.4734L26.3394 6.26481C25.7573 5.86111 26.043 4.94795 26.7513 4.94795L28.9779 4.94795C29.2874 4.94795 29.5625 4.75096 29.6622 4.45801L30.3732 2.36931Z" fill="#FFA858"/>
<path d="M42.0711 2.47482C42.2875 1.80883 43.2297 1.80883 43.4461 2.47483L44.0873 4.44845C44.1841 4.74629 44.4617 4.94795 44.7748 4.94795L46.85 4.94795C47.5503 4.94795 47.8414 5.84401 47.2749 6.25562L45.596 7.47544C45.3427 7.65951 45.2366 7.98579 45.3334 8.28362L45.9747 10.2573C46.1911 10.9233 45.4288 11.4771 44.8623 11.0655L43.1835 9.84572C42.9301 9.66164 42.587 9.66164 42.3337 9.84572L40.6549 11.0655C40.0884 11.4771 39.3261 10.9233 39.5425 10.2573L40.1838 8.28362C40.2805 7.98579 40.1745 7.65951 39.9212 7.47544L38.2423 6.25562C37.6758 5.84401 37.9669 4.94795 38.6672 4.94795L40.7424 4.94795C41.0555 4.94795 41.3331 4.74629 41.4298 4.44845L42.0711 2.47482Z" fill="#FFA858"/>
<path d="M53.7755 2.36931C53.9979 1.71605 54.9218 1.71606 55.1442 2.36931L55.8551 4.45801C55.9548 4.75096 56.23 4.94795 56.5394 4.94795L58.766 4.94795C59.4744 4.94795 59.76 5.86111 59.178 6.26481L57.4353 7.4734C57.1701 7.65733 57.059 7.99479 57.163 8.30032L57.8421 10.2955C58.0668 10.9556 57.3188 11.5198 56.7458 11.1224L54.8718 9.82271C54.624 9.65088 54.2956 9.65088 54.0479 9.82271L52.1739 11.1224C51.6009 11.5198 50.8529 10.9556 51.0776 10.2955L51.7567 8.30032C51.8607 7.99479 51.7496 7.65733 51.4844 7.4734L49.7417 6.26481C49.1596 5.86111 49.4453 4.94795 50.1537 4.94795L52.3803 4.94795C52.6897 4.94795 52.9649 4.75096 53.0646 4.45801L53.7755 2.36931Z" fill="#FFA858"/>
</svg>
