<svg width="62" height="14" viewBox="0 0 62 14" fill="none" xmlns="http://www.w3.org/2000/svg">
<path d="M7.10264 2.48856C7.32512 1.83495 8.24953 1.83495 8.472 2.48856L9.18334 4.57838C9.28311 4.87149 9.55839 5.06858 9.86802 5.06858H12.0958C12.8046 5.06858 13.0904 5.98224 12.508 6.38615L10.7644 7.5954C10.499 7.77943 10.3878 8.11706 10.4919 8.42276L11.1714 10.419C11.3962 11.0795 10.6478 11.644 10.0745 11.2464L8.1995 9.94597C7.95161 9.77405 7.62304 9.77405 7.37514 9.94597L5.50011 11.2464C4.92681 11.644 4.17844 11.0795 4.40326 10.419L5.08274 8.42276C5.1868 8.11706 5.07559 7.77943 4.81024 7.5954L3.06666 6.38615C2.48426 5.98224 2.77009 5.06858 3.47884 5.06858H5.70662C6.01625 5.06858 6.29153 4.87149 6.3913 4.57838L7.10264 2.48856Z" fill="#FFA858"/>
<path d="M18.807 2.59413C19.0235 1.92778 19.9662 1.92778 20.1827 2.59413L20.8243 4.56882C20.9211 4.86682 21.1988 5.06858 21.5121 5.06858H23.5884C24.2891 5.06858 24.5804 5.96513 24.0136 6.37696L22.3338 7.59744C22.0803 7.78161 21.9742 8.10806 22.071 8.40605L22.7127 10.3808C22.9292 11.0471 22.1665 11.6012 21.5997 11.1894L19.92 9.969C19.6665 9.78481 19.3232 9.78481 19.0697 9.969L17.39 11.1894C16.8232 11.6012 16.0605 11.0471 16.277 10.3808L16.9186 8.40605C17.0154 8.10806 16.9094 7.78161 16.6559 7.59744L14.9761 6.37696C14.4093 5.96513 14.7006 5.06858 15.4012 5.06858H17.4775C17.7909 5.06858 18.0686 4.86682 18.1654 4.56882L18.807 2.59413Z" fill="#FFA858"/>
<path d="M30.5177 2.48856C30.7402 1.83495 31.6646 1.83495 31.887 2.48856L32.5984 4.57838C32.6981 4.87149 32.9734 5.06858 33.2831 5.06858H35.5108C36.2196 5.06858 36.5054 5.98224 35.923 6.38615L34.1794 7.5954C33.9141 7.77943 33.8029 8.11706 33.9069 8.42276L34.5864 10.419C34.8112 11.0795 34.0629 11.644 33.4896 11.2464L31.6145 9.94597C31.3666 9.77405 31.0381 9.77405 30.7902 9.94597L28.9152 11.2464C28.3419 11.644 27.5935 11.0795 27.8183 10.419L28.4978 8.42276C28.6018 8.11706 28.4906 7.77943 28.2253 7.5954L26.4817 6.38615C25.8993 5.98224 26.1851 5.06858 26.8939 5.06858H29.1217C29.4313 5.06858 29.7066 4.87149 29.8063 4.57838L30.5177 2.48856Z" fill="#FFA858"/>
<path d="M42.222 2.59413C42.4385 1.92778 43.3812 1.92778 43.5977 2.59413L44.2393 4.56882C44.3362 4.86682 44.6139 5.06858 44.9272 5.06858H47.0035C47.7041 5.06858 47.9954 5.96513 47.4286 6.37696L45.7488 7.59744C45.4953 7.78161 45.3893 8.10806 45.4861 8.40605L46.1277 10.3808C46.3442 11.0471 45.5815 11.6012 45.0147 11.1894L43.335 9.969C43.0815 9.78481 42.7382 9.78481 42.4847 9.969L40.805 11.1894C40.2382 11.6012 39.4755 11.0471 39.692 10.3808L40.3337 8.40605C40.4305 8.10806 40.3244 7.78161 40.0709 7.59744L38.3911 6.37696C37.8243 5.96513 38.1156 5.06858 38.8163 5.06858H40.8926C41.2059 5.06858 41.4836 4.86682 41.5804 4.56882L42.222 2.59413Z" fill="#FFA858"/>
<path d="M53.9322 2.48856C54.1547 1.83495 55.0791 1.83495 55.3016 2.48856L56.0129 4.57838C56.1127 4.87149 56.388 5.06858 56.6976 5.06858H58.9254C59.6341 5.06858 59.92 5.98224 59.3376 6.38615L57.594 7.5954C57.3286 7.77943 57.2174 8.11706 57.3215 8.42276L58.001 10.419C58.2258 11.0795 57.4774 11.644 56.9041 11.2464L55.0291 9.94597C54.7812 9.77405 54.4526 9.77405 54.2047 9.94597L52.3297 11.2464C51.7564 11.644 51.008 11.0795 51.2328 10.419L51.9123 8.42276C52.0164 8.11706 51.9052 7.77943 51.6398 7.5954L49.8962 6.38615C49.3139 5.98224 49.5997 5.06858 50.3084 5.06858H52.5362C52.8458 5.06858 53.1211 4.87149 53.2209 4.57838L53.9322 2.48856Z" fill="#FFA858"/>
</svg>
