<svg width="62" height="14" viewBox="0 0 62 14" fill="none" xmlns="http://www.w3.org/2000/svg">
<path d="M7.10289 2.48871C7.32536 1.8351 8.24977 1.8351 8.47225 2.48871L9.18358 4.57853C9.28335 4.87164 9.55864 5.06873 9.86826 5.06873H12.0961C12.8048 5.06873 13.0906 5.98239 12.5082 6.38631L10.7646 7.59555C10.4993 7.77958 10.3881 8.11722 10.4921 8.42291L11.1716 10.4192C11.3964 11.0796 10.6481 11.6441 10.0748 11.2465L8.19974 9.94613C7.95185 9.7742 7.62328 9.7742 7.37539 9.94613L5.50036 11.2465C4.92706 11.6441 4.17869 11.0796 4.4035 10.4192L5.08299 8.42291C5.18704 8.11722 5.07584 7.77958 4.81049 7.59555L3.0669 6.3863C2.48451 5.98239 2.77033 5.06873 3.47908 5.06873H5.70687C6.01649 5.06873 6.29178 4.87164 6.39155 4.57853L7.10289 2.48871Z" fill="#FFA858"/>
<path d="M18.8072 2.59425C19.0237 1.9279 19.9664 1.9279 20.1829 2.59425L20.8245 4.56894C20.9214 4.86694 21.1991 5.0687 21.5124 5.0687H23.5887C24.2893 5.0687 24.5806 5.96525 24.0138 6.37708L22.334 7.59756C22.0805 7.78173 21.9745 8.10818 22.0713 8.40617L22.7129 10.3809C22.9294 11.0473 22.1667 11.6014 21.5999 11.1895L19.9202 9.96912C19.6667 9.78494 19.3234 9.78494 19.0699 9.96912L17.3902 11.1895C16.8234 11.6014 16.0607 11.0473 16.2772 10.3809L16.9189 8.40617C17.0157 8.10818 16.9096 7.78173 16.6561 7.59756L14.9763 6.37708C14.4095 5.96525 14.7008 5.0687 15.4015 5.0687H17.4778C17.7911 5.0687 18.0688 4.86694 18.1656 4.56894L18.8072 2.59425Z" fill="#FFA858"/>
<path d="M30.5177 2.48868C30.7402 1.83507 31.6646 1.83507 31.887 2.48868L32.5984 4.5785C32.6981 4.87161 32.9734 5.0687 33.2831 5.0687H35.5108C36.2196 5.0687 36.5054 5.98236 35.923 6.38627L34.1794 7.59552C33.9141 7.77955 33.8029 8.11719 33.9069 8.42288L34.5864 10.4191C34.8112 11.0796 34.0629 11.6441 33.4896 11.2465L31.6145 9.9461C31.3666 9.77417 31.0381 9.77417 30.7902 9.9461L28.9152 11.2465C28.3419 11.6441 27.5935 11.0796 27.8183 10.4191L28.4978 8.42288C28.6018 8.11719 28.4906 7.77955 28.2253 7.59552L26.4817 6.38627C25.8993 5.98236 26.1851 5.0687 26.8939 5.0687H29.1217C29.4313 5.0687 29.7066 4.87161 29.8063 4.5785L30.5177 2.48868Z" fill="#FFA858"/>
<path d="M42.222 2.59425C42.4385 1.9279 43.3812 1.9279 43.5977 2.59425L44.2393 4.56894C44.3362 4.86694 44.6139 5.0687 44.9272 5.0687H47.0035C47.7041 5.0687 47.9954 5.96525 47.4286 6.37708L45.7488 7.59756C45.4953 7.78173 45.3893 8.10818 45.4861 8.40617L46.1277 10.3809C46.3442 11.0473 45.5815 11.6014 45.0147 11.1895L43.335 9.96912C43.0815 9.78494 42.7382 9.78494 42.4847 9.96912L40.805 11.1895C40.2382 11.6014 39.4755 11.0473 39.692 10.3809L40.3337 8.40617C40.4305 8.10818 40.3244 7.78173 40.0709 7.59756L38.3911 6.37708C37.8243 5.96525 38.1156 5.0687 38.8163 5.0687H40.8926C41.2059 5.0687 41.4836 4.86694 41.5804 4.56894L42.222 2.59425Z" fill="#FFA858"/>
<path d="M53.9325 2.48868C54.155 1.83507 55.0794 1.83507 55.3018 2.48868L56.0132 4.5785C56.1129 4.87161 56.3882 5.0687 56.6979 5.0687H58.9256C59.6344 5.0687 59.9202 5.98236 59.3378 6.38627L57.5942 7.59552C57.3289 7.77955 57.2177 8.11719 57.3217 8.42288L58.0012 10.4191C58.226 11.0796 57.4777 11.6441 56.9044 11.2465L55.0293 9.9461C54.7814 9.77417 54.4529 9.77417 54.205 9.9461L52.3299 11.2465C51.7566 11.6441 51.0083 11.0796 51.2331 10.4191L51.9126 8.42288C52.0166 8.11719 51.9054 7.77955 51.6401 7.59552L49.8965 6.38627C49.3141 5.98236 49.5999 5.0687 50.3087 5.0687H52.5365C52.8461 5.0687 53.1214 4.87161 53.2211 4.5785L53.9325 2.48868Z" fill="#FFA858"/>
</svg>
