<svg width="61" height="14" viewBox="0 0 61 14" fill="none" xmlns="http://www.w3.org/2000/svg">
<path d="M6.34434 2.48856C6.56682 1.83495 7.49123 1.83495 7.7137 2.48856L8.42504 4.57838C8.52481 4.87149 8.80009 5.06858 9.10972 5.06858H11.3375C12.0463 5.06858 12.3321 5.98224 11.7497 6.38615L10.0061 7.5954C9.74075 7.77943 9.62955 8.11706 9.7336 8.42276L10.4131 10.419C10.6379 11.0795 9.88953 11.644 9.31623 11.2464L7.4412 9.94597C7.19331 9.77405 6.86474 9.77405 6.61684 9.94597L4.74181 11.2464C4.16851 11.644 3.42014 11.0795 3.64495 10.419L4.32444 8.42276C4.4285 8.11706 4.31729 7.77943 4.05194 7.5954L2.30836 6.38615C1.72596 5.98224 2.01178 5.06858 2.72054 5.06858H4.94832C5.25795 5.06858 5.53323 4.87149 5.633 4.57838L6.34434 2.48856Z" fill="#FFA858"/>
<path d="M18.0487 2.59413C18.2652 1.92778 19.2079 1.92778 19.4244 2.59413L20.066 4.56882C20.1628 4.86682 20.4405 5.06858 20.7538 5.06858H22.8301C23.5308 5.06858 23.8221 5.96513 23.2553 6.37696L21.5755 7.59744C21.322 7.78161 21.2159 8.10806 21.3127 8.40605L21.9544 10.3808C22.1709 11.0471 21.4082 11.6012 20.8414 11.1894L19.1617 9.969C18.9082 9.78481 18.5649 9.78481 18.3114 9.969L16.6317 11.1894C16.0649 11.6012 15.3022 11.0471 15.5187 10.3808L16.1603 8.40605C16.2571 8.10806 16.1511 7.78161 15.8976 7.59744L14.2178 6.37696C13.651 5.96513 13.9423 5.06858 14.6429 5.06858H16.7192C17.0325 5.06858 17.3103 4.86682 17.4071 4.56882L18.0487 2.59413Z" fill="#FFA858"/>
<path d="M29.7589 2.48856C29.9814 1.83495 30.9058 1.83495 31.1283 2.48856L31.8396 4.57838C31.9394 4.87149 32.2146 5.06858 32.5243 5.06858H34.7521C35.4608 5.06858 35.7466 5.98224 35.1642 6.38615L33.4207 7.5954C33.1553 7.77943 33.0441 8.11706 33.1481 8.42276L33.8276 10.419C34.0525 11.0795 33.3041 11.644 32.7308 11.2464L30.8558 9.94597C30.6079 9.77405 30.2793 9.77405 30.0314 9.94597L28.1564 11.2464C27.5831 11.644 26.8347 11.0795 27.0595 10.419L27.739 8.42276C27.843 8.11706 27.7318 7.77943 27.4665 7.5954L25.7229 6.38615C25.1405 5.98224 25.4263 5.06858 26.1351 5.06858H28.3629C28.6725 5.06858 28.9478 4.87149 29.0476 4.57838L29.7589 2.48856Z" fill="#FFA858"/>
<path d="M41.4632 2.59413C41.6797 1.92778 42.6224 1.92778 42.8389 2.59413L43.4805 4.56882C43.5774 4.86682 43.8551 5.06858 44.1684 5.06858H46.2447C46.9453 5.06858 47.2366 5.96513 46.6698 6.37696L44.99 7.59744C44.7365 7.78161 44.6305 8.10806 44.7273 8.40605L45.3689 10.3808C45.5854 11.0471 44.8227 11.6012 44.2559 11.1894L42.5762 9.969C42.3227 9.78481 41.9794 9.78481 41.726 9.969L40.0462 11.1894C39.4794 11.6012 38.7167 11.0471 38.9333 10.3808L39.5749 8.40605C39.6717 8.10806 39.5656 7.78161 39.3121 7.59744L37.6323 6.37696C37.0655 5.96513 37.3568 5.06858 38.0575 5.06858H40.1338C40.4471 5.06858 40.7248 4.86682 40.8216 4.56882L41.4632 2.59413Z" fill="#FFA858"/>
<path d="M53.1739 2.48856C53.3964 1.83495 54.3208 1.83495 54.5433 2.48856L55.2546 4.57838C55.3544 4.87149 55.6297 5.06858 55.9393 5.06858H58.1671C58.8758 5.06858 59.1617 5.98224 58.5793 6.38615L56.8357 7.5954C56.5703 7.77943 56.4591 8.11706 56.5632 8.42276L57.2427 10.419C57.4675 11.0795 56.7191 11.644 56.1458 11.2464L54.2708 9.94597C54.0229 9.77405 53.6943 9.77405 53.4464 9.94597L51.5714 11.2464C50.9981 11.644 50.2497 11.0795 50.4745 10.419L51.154 8.42276C51.2581 8.11706 51.1469 7.77943 50.8815 7.5954L49.1379 6.38615C48.5556 5.98224 48.8414 5.06858 49.5501 5.06858H51.7779C52.0875 5.06858 52.3628 4.87149 52.4626 4.57838L53.1739 2.48856Z" fill="#FFA858"/>
</svg>
