<svg width="62" height="14" viewBox="0 0 62 14" fill="none" xmlns="http://www.w3.org/2000/svg">
<path d="M7.10747 2.25716C7.3293 1.60544 8.25104 1.60544 8.47287 2.25716L9.18216 4.34095C9.28164 4.63321 9.55613 4.82974 9.86486 4.82974H12.0862C12.7929 4.82974 13.0779 5.74076 12.4972 6.1435L10.7587 7.34925C10.4941 7.53275 10.3832 7.86942 10.4869 8.17423L11.1645 10.1647C11.3886 10.8233 10.6424 11.3861 10.0708 10.9897L8.20116 9.69304C7.95398 9.52162 7.62636 9.52162 7.37918 9.69304L5.50957 10.9897C4.93792 11.3861 4.19171 10.8233 4.41587 10.1647L5.0934 8.17423C5.19715 7.86941 5.08627 7.53275 4.82169 7.34925L3.08314 6.1435C2.50243 5.74076 2.78742 4.82974 3.49413 4.82974H5.71548C6.02421 4.82974 6.2987 4.63321 6.39818 4.34095L7.10747 2.25716Z" fill="#FFA858"/>
<path d="M18.7781 2.36218C18.9939 1.69776 19.9339 1.69776 20.1498 2.36219L20.7895 4.33117C20.8861 4.62831 21.163 4.82949 21.4754 4.82949H23.5457C24.2443 4.82949 24.5348 5.72345 23.9696 6.13409L22.2947 7.35104C22.0419 7.53469 21.9362 7.86019 22.0327 8.15732L22.6725 10.1264C22.8883 10.7908 22.1279 11.3433 21.5627 10.9326L19.8878 9.71575C19.6351 9.53211 19.2928 9.5321 19.04 9.71575L17.3652 10.9326C16.8 11.3433 16.0395 10.7908 16.2554 10.1264L16.8951 8.15732C16.9917 7.86019 16.8859 7.53469 16.6332 7.35105L14.9582 6.13409C14.3931 5.72345 14.6835 4.82949 15.3821 4.82949H17.4524C17.7649 4.82949 18.0418 4.62831 18.1383 4.33117L18.7781 2.36218Z" fill="#FFA858"/>
<path d="M30.4546 2.25691C30.6765 1.6052 31.5982 1.6052 31.82 2.25692L32.5293 4.3407C32.6288 4.63297 32.9033 4.82949 33.212 4.82949H35.4334C36.1401 4.82949 36.4251 5.74051 35.8444 6.14326L34.1058 7.34901C33.8412 7.53251 33.7304 7.86917 33.8341 8.17399L34.5116 10.1645C34.7358 10.823 33.9896 11.3859 33.4179 10.9894L31.5483 9.6928C31.3011 9.52137 30.9735 9.52137 30.7263 9.6928L28.8567 10.9894C28.2851 11.3859 27.5389 10.823 27.763 10.1645L28.4406 8.17399C28.5443 7.86917 28.4334 7.53251 28.1689 7.34901L26.4303 6.14326C25.8496 5.74051 26.1346 4.82949 26.8413 4.82949H29.0626C29.3714 4.82949 29.6459 4.63297 29.7453 4.3407L30.4546 2.25691Z" fill="#FFA858"/>
<path d="M42.1255 2.36218C42.3413 1.69776 43.2813 1.69776 43.4972 2.36219L44.137 4.33117C44.2335 4.62831 44.5104 4.82949 44.8228 4.82949H46.8931C47.5917 4.82949 47.8822 5.72345 47.317 6.13409L45.6421 7.35104C45.3893 7.53469 45.2836 7.86019 45.3801 8.15732L46.0199 10.1264C46.2358 10.7908 45.4753 11.3433 44.9101 10.9326L43.2352 9.71575C42.9825 9.53211 42.6402 9.5321 42.3874 9.71575L40.7126 10.9326C40.1474 11.3433 39.3869 10.7908 39.6028 10.1264L40.2426 8.15732C40.3391 7.86019 40.2333 7.53469 39.9806 7.35105L38.3056 6.13409C37.7405 5.72345 38.0309 4.82949 38.7295 4.82949H40.7998C41.1123 4.82949 41.3892 4.62831 41.4857 4.33117L42.1255 2.36218Z" fill="#FFA858"/>
<path d="M53.8023 2.25691C54.0241 1.6052 54.9459 1.6052 55.1677 2.25692L55.877 4.3407C55.9765 4.63297 56.2509 4.82949 56.5597 4.82949H58.781C59.4877 4.82949 59.7727 5.74051 59.192 6.14326L57.4535 7.34901C57.1889 7.53251 57.078 7.86917 57.1818 8.17399L57.8593 10.1645C58.0835 10.823 57.3372 11.3859 56.7656 10.9894L54.896 9.6928C54.6488 9.52137 54.3212 9.52137 54.074 9.6928L52.2044 10.9894C51.6327 11.3859 50.8865 10.823 51.1107 10.1645L51.7882 8.17399C51.892 7.86917 51.7811 7.53251 51.5165 7.34901L49.778 6.14326C49.1972 5.74051 49.4822 4.82949 50.1889 4.82949H52.4103C52.719 4.82949 52.9935 4.63297 53.093 4.3407L53.8023 2.25691Z" fill="#FFA858"/>
</svg>
