<svg width="62" height="14" viewBox="0 0 62 14" fill="none" xmlns="http://www.w3.org/2000/svg">
<path d="M7.07585 2.25728C7.29768 1.60556 8.21942 1.60556 8.44126 2.25728L9.15054 4.34107C9.25002 4.63334 9.52451 4.82986 9.83324 4.82986H12.0546C12.7613 4.82986 13.0463 5.74088 12.4656 6.14362L10.727 7.34937C10.4625 7.53287 10.3516 7.86954 10.4553 8.17435L11.1328 10.1648C11.357 10.8234 10.6108 11.3863 10.0392 10.9898L8.16954 9.69317C7.92236 9.52174 7.59474 9.52174 7.34756 9.69317L5.47795 10.9898C4.90631 11.3863 4.16009 10.8234 4.38426 10.1648L5.06178 8.17435C5.16554 7.86954 5.05465 7.53287 4.79007 7.34937L3.05152 6.14363C2.47081 5.74088 2.75581 4.82986 3.46251 4.82986H5.68386C5.9926 4.82986 6.26708 4.63334 6.36656 4.34107L7.07585 2.25728Z" fill="#FFA858"/>
<path d="M18.7463 2.36231C18.9622 1.69788 19.9022 1.69788 20.1181 2.36231L20.7578 4.33129C20.8543 4.62843 21.1312 4.82961 21.4437 4.82961H23.514C24.2126 4.82961 24.5031 5.72358 23.9379 6.13421L22.2629 7.35117C22.0102 7.53481 21.9044 7.86031 22.001 8.15745L22.6407 10.1265C22.8566 10.7909 22.0961 11.3434 21.5309 10.9328L19.8561 9.71588C19.6033 9.53223 19.261 9.53223 19.0083 9.71588L17.3334 10.9328C16.7682 11.3434 16.0078 10.7909 16.2236 10.1265L16.8634 8.15745C16.96 7.86031 16.8542 7.53481 16.6014 7.35117L14.9265 6.13422C14.3613 5.72358 14.6518 4.82961 15.3504 4.82961H17.4207C17.7331 4.82961 18.01 4.62843 18.1066 4.33129L18.7463 2.36231Z" fill="#FFA858"/>
<path d="M30.423 2.25704C30.6449 1.60532 31.5666 1.60532 31.7884 2.25704L32.4977 4.34083C32.5972 4.63309 32.8717 4.82961 33.1804 4.82961H35.4018C36.1085 4.82961 36.3935 5.74063 35.8128 6.14338L34.0742 7.34913C33.8096 7.53263 33.6987 7.86929 33.8025 8.17411L34.48 10.1646C34.7042 10.8232 33.958 11.386 33.3863 10.9896L31.5167 9.69292C31.2695 9.52149 30.9419 9.52149 30.6947 9.69292L28.8251 10.9896C28.2535 11.386 27.5073 10.8232 27.7314 10.1646L28.409 8.17411C28.5127 7.86929 28.4018 7.53263 28.1372 7.34913L26.3987 6.14338C25.818 5.74064 26.103 4.82961 26.8097 4.82961H29.031C29.3398 4.82961 29.6143 4.63309 29.7137 4.34083L30.423 2.25704Z" fill="#FFA858"/>
<path d="M42.0934 2.36231C42.3092 1.69788 43.2492 1.69788 43.4651 2.36231L44.1048 4.33129C44.2014 4.62843 44.4783 4.82961 44.7907 4.82961H46.861C47.5596 4.82961 47.8501 5.72358 47.2849 6.13421L45.61 7.35117C45.3572 7.53481 45.2515 7.86031 45.348 8.15745L45.9878 10.1265C46.2036 10.7909 45.4432 11.3434 44.878 10.9328L43.2031 9.71588C42.9504 9.53223 42.6081 9.53223 42.3553 9.71588L40.6805 10.9328C40.1153 11.3434 39.3548 10.7909 39.5707 10.1265L40.2105 8.15745C40.307 7.86031 40.2012 7.53481 39.9485 7.35117L38.2735 6.13422C37.7084 5.72358 37.9988 4.82961 38.6974 4.82961H40.7677C41.0802 4.82961 41.3571 4.62843 41.4536 4.33129L42.0934 2.36231Z" fill="#FFA858"/>
<path d="M53.7701 2.25704C53.9919 1.60532 54.9136 1.60532 55.1355 2.25704L55.8448 4.34083C55.9442 4.63309 56.2187 4.82961 56.5275 4.82961H58.7488C59.4555 4.82961 59.7405 5.74063 59.1598 6.14338L57.4212 7.34913C57.1567 7.53263 57.0458 7.86929 57.1495 8.17411L57.8271 10.1646C58.0512 10.8232 57.305 11.386 56.7334 10.9896L54.8638 9.69292C54.6166 9.52149 54.289 9.52149 54.0418 9.69292L52.1722 10.9896C51.6005 11.386 50.8543 10.8232 51.0785 10.1646L51.756 8.17411C51.8598 7.86929 51.7489 7.53263 51.4843 7.34913L49.7457 6.14338C49.165 5.74064 49.45 4.82961 50.1567 4.82961H52.3781C52.6868 4.82961 52.9613 4.63309 53.0608 4.34083L53.7701 2.25704Z" fill="#FFA858"/>
</svg>
