<svg width="62" height="14" viewBox="0 0 62 14" fill="none" xmlns="http://www.w3.org/2000/svg">
<path d="M7.18754 2.25667C7.40938 1.60495 8.33112 1.60495 8.55295 2.25667L9.26223 4.34046C9.36172 4.63273 9.6362 4.82925 9.94494 4.82925H12.1663C12.873 4.82925 13.158 5.74027 12.5773 6.14301L10.8387 7.34876C10.5741 7.53226 10.4633 7.86893 10.567 8.17374L11.2445 10.1642C11.4687 10.8228 10.7225 11.3857 10.1508 10.9892L8.28124 9.69256C8.03406 9.52113 7.70644 9.52113 7.45926 9.69256L5.58965 10.9892C5.018 11.3857 4.27179 10.8228 4.49595 10.1642L5.17348 8.17374C5.27723 7.86893 5.16635 7.53226 4.90176 7.34876L3.16322 6.14301C2.5825 5.74027 2.8675 4.82925 3.5742 4.82925H5.79556C6.10429 4.82925 6.37878 4.63273 6.47826 4.34046L7.18754 2.25667Z" fill="#FFA858"/>
<path d="M18.8576 2.36194C19.0735 1.69751 20.0135 1.69751 20.2294 2.36194L20.8691 4.33093C20.9657 4.62807 21.2426 4.82925 21.555 4.82925H23.6253C24.3239 4.82925 24.6144 5.72321 24.0492 6.13385L22.3743 7.3508C22.1215 7.53444 22.0157 7.85995 22.1123 8.15708L22.7521 10.1261C22.9679 10.7905 22.2075 11.343 21.6423 10.9324L19.9674 9.71551C19.7147 9.53186 19.3724 9.53186 19.1196 9.71551L17.4448 10.9324C16.8796 11.343 16.1191 10.7905 16.335 10.1261L16.9747 8.15708C17.0713 7.85995 16.9655 7.53444 16.7128 7.3508L15.0378 6.13385C14.4726 5.72321 14.7631 4.82925 15.4617 4.82925H17.532C17.8445 4.82925 18.1214 4.62807 18.2179 4.33093L18.8576 2.36194Z" fill="#FFA858"/>
<path d="M30.5347 2.25667C30.7565 1.60495 31.6783 1.60495 31.9001 2.25667L32.6094 4.34046C32.7089 4.63273 32.9834 4.82925 33.2921 4.82925H35.5135C36.2202 4.82925 36.5052 5.74027 35.9244 6.14301L34.1859 7.34876C33.9213 7.53226 33.8104 7.86893 33.9142 8.17374L34.5917 10.1642C34.8159 10.8228 34.0697 11.3857 33.498 10.9892L31.6284 9.69256C31.3812 9.52113 31.0536 9.52113 30.8064 9.69256L28.9368 10.9892C28.3652 11.3857 27.619 10.8228 27.8431 10.1642L28.5206 8.17374C28.6244 7.86893 28.5135 7.53226 28.2489 7.34876L26.5104 6.14301C25.9297 5.74027 26.2147 4.82925 26.9214 4.82925H29.1427C29.4515 4.82925 29.7259 4.63273 29.8254 4.34046L30.5347 2.25667Z" fill="#FFA858"/>
<path d="M42.2048 2.36194C42.4207 1.69751 43.3607 1.69751 43.5766 2.36194L44.2163 4.33093C44.3128 4.62807 44.5897 4.82925 44.9022 4.82925H46.9725C47.6711 4.82925 47.9616 5.72321 47.3964 6.13385L45.7214 7.3508C45.4687 7.53444 45.3629 7.85995 45.4595 8.15708L46.0992 10.1261C46.3151 10.7905 45.5546 11.343 44.9894 10.9324L43.3146 9.71551C43.0618 9.53186 42.7195 9.53186 42.4668 9.71551L40.7919 10.9324C40.2267 11.343 39.4663 10.7905 39.6821 10.1261L40.3219 8.15708C40.4184 7.85995 40.3127 7.53444 40.0599 7.3508L38.385 6.13385C37.8198 5.72321 38.1103 4.82925 38.8089 4.82925H40.8792C41.1916 4.82925 41.4685 4.62807 41.5651 4.33093L42.2048 2.36194Z" fill="#FFA858"/>
<path d="M53.8814 2.25667C54.1032 1.60495 55.025 1.60495 55.2468 2.25667L55.9561 4.34046C56.0556 4.63273 56.3301 4.82925 56.6388 4.82925H58.8601C59.5668 4.82925 59.8518 5.74027 59.2711 6.14301L57.5326 7.34876C57.268 7.53226 57.1571 7.86893 57.2609 8.17374L57.9384 10.1642C58.1626 10.8228 57.4163 11.3857 56.8447 10.9892L54.9751 9.69256C54.7279 9.52113 54.4003 9.52113 54.1531 9.69256L52.2835 10.9892C51.7118 11.3857 50.9656 10.8228 51.1898 10.1642L51.8673 8.17374C51.9711 7.86893 51.8602 7.53226 51.5956 7.34876L49.8571 6.14301C49.2764 5.74027 49.5613 4.82925 50.2681 4.82925H52.4894C52.7981 4.82925 53.0726 4.63273 53.1721 4.34046L53.8814 2.25667Z" fill="#FFA858"/>
</svg>
