<svg width="61" height="14" viewBox="0 0 61 14" fill="none" xmlns="http://www.w3.org/2000/svg">
<path d="M6.26821 2.36858C6.49056 1.71532 7.41448 1.71532 7.63683 2.36858L8.34779 4.45727C8.4475 4.75023 8.72264 4.94721 9.0321 4.94721L11.2587 4.94721C11.9671 4.94721 12.2527 5.86038 11.6706 6.26408L9.928 7.47267C9.66279 7.6566 9.55165 7.99406 9.65564 8.29959L10.3348 10.2948C10.5595 10.9549 9.81149 11.5191 9.2385 11.1217L7.36448 9.82198C7.11672 9.65015 6.78832 9.65015 6.54056 9.82198L4.66654 11.1217C4.09355 11.5191 3.34558 10.9549 3.57028 10.2948L4.2494 8.29959C4.3534 7.99406 4.24225 7.6566 3.97704 7.47267L2.2344 6.26408C1.65232 5.86038 1.93798 4.94721 2.64635 4.94721L4.87294 4.94721C5.1824 4.94721 5.45754 4.75023 5.55725 4.45727L6.26821 2.36858Z" fill="#FFA858"/>
<path d="M17.9664 2.47385C18.1828 1.80785 19.125 1.80785 19.3413 2.47385L19.9826 4.44747C20.0794 4.74532 20.3569 4.94697 20.6701 4.94697L22.7453 4.94697C23.4455 4.94697 23.7367 5.84304 23.1702 6.25464L21.4913 7.47446C21.2379 7.65854 21.1319 7.98481 21.2287 8.28264L21.87 10.2563C22.0863 10.9223 21.3241 11.4761 20.7576 11.0645L19.0788 9.84475C18.8254 9.66066 18.4823 9.66066 18.229 9.84475L16.5501 11.0645C15.9836 11.4761 15.2214 10.9223 15.4378 10.2563L16.079 8.28264C16.1758 7.98481 16.0698 7.65854 15.8164 7.47446L14.1375 6.25464C13.571 5.84304 13.8622 4.94697 14.5624 4.94697L16.6376 4.94697C16.9508 4.94697 17.2283 4.74532 17.3251 4.44747L17.9664 2.47385Z" fill="#FFA858"/>
<path d="M29.6706 2.36833C29.8929 1.71508 30.8168 1.71508 31.0392 2.36833L31.7501 4.45703C31.8498 4.74998 32.125 4.94697 32.4344 4.94697L34.661 4.94697C35.3694 4.94697 35.6551 5.86014 35.073 6.26383L33.3303 7.47242C33.0651 7.65635 32.954 7.99381 33.058 8.29934L33.7371 10.2945C33.9618 10.9546 33.2138 11.5188 32.6408 11.1214L30.7668 9.82174C30.5191 9.64991 30.1907 9.64991 29.9429 9.82174L28.0689 11.1214C27.4959 11.5188 26.7479 10.9546 26.9726 10.2945L27.6517 8.29934C27.7557 7.99381 27.6446 7.65635 27.3794 7.47242L25.6367 6.26383C25.0547 5.86014 25.3403 4.94697 26.0487 4.94697L28.2753 4.94697C28.5847 4.94697 28.8599 4.74998 28.9596 4.45703L29.6706 2.36833Z" fill="#FFA858"/>
<path d="M41.3682 2.47385C41.5846 1.80785 42.5268 1.80785 42.7432 2.47385L43.3844 4.44747C43.4812 4.74532 43.7588 4.94697 44.0719 4.94697L46.1471 4.94697C46.8474 4.94697 47.1385 5.84304 46.572 6.25464L44.8931 7.47446C44.6398 7.65854 44.5338 7.98481 44.6305 8.28264L45.2718 10.2563C45.4882 10.9223 44.7259 11.4761 44.1594 11.0645L42.4806 9.84475C42.2272 9.66066 41.8842 9.66066 41.6308 9.84475L39.952 11.0645C39.3855 11.4761 38.6232 10.9223 38.8396 10.2563L39.4809 8.28264C39.5776 7.98481 39.4716 7.65854 39.2183 7.47446L37.5394 6.25464C36.9729 5.84304 37.264 4.94697 37.9643 4.94697L40.0395 4.94697C40.3526 4.94697 40.6302 4.74532 40.727 4.44747L41.3682 2.47385Z" fill="#FFA858"/>
<path d="M53.073 2.36833C53.2954 1.71508 54.2193 1.71508 54.4416 2.36833L55.1526 4.45703C55.2523 4.74998 55.5274 4.94697 55.8369 4.94697L58.0635 4.94697C58.7719 4.94697 59.0575 5.86014 58.4755 6.26383L56.7328 7.47242C56.4676 7.65635 56.3565 7.99381 56.4605 8.29934L57.1396 10.2945C57.3643 10.9546 56.6163 11.5188 56.0433 11.1214L54.1693 9.82174C53.9215 9.64991 53.5931 9.64991 53.3454 9.82174L51.4714 11.1214C50.8984 11.5188 50.1504 10.9546 50.3751 10.2945L51.0542 8.29934C51.1582 7.99381 51.0471 7.65635 50.7819 7.47242L49.0392 6.26383C48.4571 5.86014 48.7428 4.94697 49.4512 4.94697L51.6778 4.94697C51.9872 4.94697 52.2623 4.74998 52.3621 4.45703L53.073 2.36833Z" fill="#FFA858"/>
</svg>
