<svg width="61" height="14" viewBox="0 0 61 14" fill="none" xmlns="http://www.w3.org/2000/svg">
<path d="M6.34458 2.4888C6.56706 1.83519 7.49147 1.83519 7.71395 2.4888L8.42528 4.57862C8.52505 4.87173 8.80034 5.06883 9.10996 5.06883H11.3377C12.0465 5.06883 12.3323 5.98248 11.7499 6.3864L10.0063 7.59564C9.74099 7.77967 9.62979 8.11731 9.73384 8.42301L10.4133 10.4193C10.6381 11.0797 9.88977 11.6442 9.31647 11.2466L7.44144 9.94622C7.19355 9.77429 6.86498 9.77429 6.61709 9.94622L4.74206 11.2466C4.16876 11.6442 3.42039 11.0797 3.6452 10.4193L4.32469 8.42301C4.42874 8.11731 4.31754 7.77967 4.05219 7.59564L2.3086 6.3864C1.72621 5.98248 2.01203 5.06883 2.72078 5.06883H4.94857C5.25819 5.06883 5.53348 4.87173 5.63325 4.57862L6.34458 2.4888Z" fill="#FFA858"/>
<path d="M18.0489 2.59437C18.2654 1.92802 19.2081 1.92802 19.4246 2.59437L20.0662 4.56906C20.1631 4.86706 20.4408 5.06883 20.7541 5.06883H22.8304C23.531 5.06883 23.8223 5.96538 23.2555 6.3772L21.5757 7.59768C21.3222 7.78185 21.2162 8.1083 21.313 8.4063L21.9546 10.381C22.1711 11.0474 21.4084 11.6015 20.8416 11.1897L19.1619 9.96924C18.9084 9.78506 18.5651 9.78506 18.3116 9.96924L16.6319 11.1897C16.0651 11.6015 15.3024 11.0474 15.5189 10.381L16.1606 8.4063C16.2574 8.1083 16.1513 7.78185 15.8978 7.59768L14.218 6.3772C13.6512 5.96538 13.9425 5.06883 14.6432 5.06883H16.7195C17.0328 5.06883 17.3105 4.86706 17.4073 4.56906L18.0489 2.59437Z" fill="#FFA858"/>
<path d="M29.7594 2.4888C29.9819 1.83519 30.9063 1.83519 31.1287 2.4888L31.8401 4.57862C31.9398 4.87173 32.2151 5.06883 32.5248 5.06883H34.7525C35.4613 5.06883 35.7471 5.98248 35.1647 6.3864L33.4211 7.59564C33.1558 7.77967 33.0446 8.11731 33.1486 8.42301L33.8281 10.4193C34.0529 11.0797 33.3046 11.6442 32.7313 11.2466L30.8562 9.94622C30.6083 9.77429 30.2798 9.77429 30.0319 9.94622L28.1569 11.2466C27.5836 11.6442 26.8352 11.0797 27.06 10.4193L27.7395 8.42301C27.8435 8.11731 27.7323 7.77967 27.467 7.59564L25.7234 6.3864C25.141 5.98248 25.4268 5.06883 26.1356 5.06883H28.3634C28.673 5.06883 28.9483 4.87173 29.048 4.57862L29.7594 2.4888Z" fill="#FFA858"/>
<path d="M41.4637 2.59437C41.6802 1.92802 42.6229 1.92802 42.8394 2.59437L43.481 4.56906C43.5779 4.86706 43.8556 5.06883 44.1689 5.06883H46.2452C46.9458 5.06883 47.2371 5.96538 46.6703 6.3772L44.9905 7.59768C44.737 7.78185 44.631 8.1083 44.7278 8.4063L45.3694 10.381C45.5859 11.0474 44.8232 11.6015 44.2564 11.1897L42.5767 9.96924C42.3232 9.78506 41.9799 9.78506 41.7264 9.96924L40.0467 11.1897C39.4799 11.6015 38.7172 11.0474 38.9337 10.381L39.5754 8.4063C39.6722 8.1083 39.5661 7.78185 39.3126 7.59768L37.6328 6.3772C37.066 5.96538 37.3573 5.06883 38.058 5.06883H40.1343C40.4476 5.06883 40.7253 4.86706 40.8221 4.56906L41.4637 2.59437Z" fill="#FFA858"/>
<path d="M53.1742 2.4888C53.3967 1.83519 54.3211 1.83519 54.5435 2.4888L55.2549 4.57862C55.3546 4.87173 55.6299 5.06883 55.9396 5.06883H58.1673C58.8761 5.06883 59.1619 5.98248 58.5795 6.3864L56.8359 7.59564C56.5706 7.77967 56.4594 8.11731 56.5634 8.42301L57.2429 10.4193C57.4677 11.0797 56.7194 11.6442 56.1461 11.2466L54.271 9.94622C54.0231 9.77429 53.6946 9.77429 53.4467 9.94622L51.5716 11.2466C50.9983 11.6442 50.25 11.0797 50.4748 10.4193L51.1543 8.42301C51.2583 8.11731 51.1471 7.77967 50.8818 7.59564L49.1382 6.3864C48.5558 5.98248 48.8416 5.06883 49.5504 5.06883H51.7782C52.0878 5.06883 52.3631 4.87173 52.4628 4.57862L53.1742 2.4888Z" fill="#FFA858"/>
</svg>
