<svg width="62" height="14" viewBox="0 0 62 14" fill="none" xmlns="http://www.w3.org/2000/svg">
<path d="M7.05815 2.46248C7.27998 1.81077 8.20172 1.81077 8.42355 2.46248L9.13284 4.54627C9.23232 4.83854 9.50681 5.03506 9.81554 5.03506H12.0369C12.7436 5.03506 13.0286 5.94608 12.4479 6.34883L10.7093 7.55458C10.4448 7.73808 10.3339 8.07474 10.4376 8.37956L11.1151 10.37C11.3393 11.0286 10.5931 11.5915 10.0215 11.195L8.15184 9.89837C7.90466 9.72694 7.57704 9.72694 7.32986 9.89837L5.46025 11.195C4.88861 11.5915 4.14239 11.0286 4.36656 10.37L5.04408 8.37955C5.14784 8.07474 5.03695 7.73808 4.77237 7.55458L3.03382 6.34883C2.45311 5.94608 2.7381 5.03506 3.44481 5.03506H5.66616C5.97489 5.03506 6.24938 4.83854 6.34886 4.54627L7.05815 2.46248Z" fill="#FFA858"/>
<path d="M18.7287 2.56763C18.9446 1.9032 19.8846 1.9032 20.1005 2.56763L20.7402 4.53662C20.8368 4.83376 21.1137 5.03494 21.4261 5.03494H23.4964C24.195 5.03494 24.4855 5.9289 23.9203 6.33954L22.2454 7.55649C21.9926 7.74013 21.8868 8.06564 21.9834 8.36277L22.6231 10.3318C22.839 10.9962 22.0786 11.5487 21.5134 11.1381L19.8385 9.9212C19.5857 9.73755 19.2435 9.73755 18.9907 9.9212L17.3158 11.1381C16.7507 11.5487 15.9902 10.9962 16.2061 10.3318L16.8458 8.36277C16.9424 8.06564 16.8366 7.74013 16.5839 7.55649L14.9089 6.33954C14.3437 5.9289 14.6342 5.03494 15.3328 5.03494H17.4031C17.7155 5.03494 17.9924 4.83376 18.089 4.53662L18.7287 2.56763Z" fill="#FFA858"/>
<path d="M30.406 2.46236C30.6279 1.81064 31.5496 1.81064 31.7715 2.46236L32.4807 4.54615C32.5802 4.83842 32.8547 5.03494 33.1634 5.03494H35.3848C36.0915 5.03494 36.3765 5.94596 35.7958 6.3487L34.0572 7.55446C33.7927 7.73795 33.6818 8.07462 33.7855 8.37943L34.463 10.3699C34.6872 11.0285 33.941 11.5914 33.3694 11.1949L31.4997 9.89825C31.2526 9.72682 30.9249 9.72682 30.6778 9.89825L28.8082 11.1949C28.2365 11.5914 27.4903 11.0285 27.7145 10.3699L28.392 8.37943C28.4957 8.07462 28.3849 7.73795 28.1203 7.55446L26.3817 6.34871C25.801 5.94596 26.086 5.03494 26.7927 5.03494H29.0141C29.3228 5.03494 29.5973 4.83842 29.6968 4.54615L30.406 2.46236Z" fill="#FFA858"/>
<path d="M42.0764 2.56763C42.2923 1.9032 43.2323 1.9032 43.4481 2.56763L44.0879 4.53662C44.1844 4.83376 44.4613 5.03494 44.7738 5.03494H46.8441C47.5427 5.03494 47.8331 5.9289 47.268 6.33954L45.593 7.55649C45.3403 7.74013 45.2345 8.06564 45.331 8.36277L45.9708 10.3318C46.1867 10.9962 45.4262 11.5487 44.861 11.1381L43.1862 9.9212C42.9334 9.73755 42.5911 9.73755 42.3384 9.9212L40.6635 11.1381C40.0983 11.5487 39.3378 10.9962 39.5537 10.3318L40.1935 8.36277C40.29 8.06564 40.1843 7.74013 39.9315 7.55649L38.2566 6.33954C37.6914 5.9289 37.9819 5.03494 38.6805 5.03494H40.7508C41.0632 5.03494 41.3401 4.83376 41.4366 4.53662L42.0764 2.56763Z" fill="#FFA858"/>
<path d="M53.7522 2.46236C53.9741 1.81064 54.8958 1.81064 55.1176 2.46236L55.8269 4.54615C55.9264 4.83842 56.2009 5.03494 56.5096 5.03494H58.731C59.4377 5.03494 59.7227 5.94596 59.142 6.3487L57.4034 7.55446C57.1388 7.73795 57.028 8.07462 57.1317 8.37943L57.8092 10.3699C58.0334 11.0285 57.2872 11.5914 56.7155 11.1949L54.8459 9.89825C54.5988 9.72682 54.2711 9.72682 54.024 9.89825L52.1543 11.1949C51.5827 11.5914 50.8365 11.0285 51.0606 10.3699L51.7382 8.37943C51.8419 8.07462 51.731 7.73795 51.4665 7.55446L49.7279 6.34871C49.1472 5.94596 49.4322 5.03494 50.1389 5.03494H52.3603C52.669 5.03494 52.9435 4.83842 53.043 4.54615L53.7522 2.46236Z" fill="#FFA858"/>
</svg>
