<svg width="61" height="14" viewBox="0 0 61 14" fill="none" xmlns="http://www.w3.org/2000/svg">
<path d="M6.2687 2.36882C6.49105 1.71557 7.41496 1.71557 7.63732 2.36882L8.34828 4.45752C8.44799 4.75047 8.72313 4.94746 9.03259 4.94746L11.2592 4.94746C11.9675 4.94746 12.2532 5.86063 11.6711 6.26432L9.92849 7.47291C9.66328 7.65684 9.55213 7.9943 9.65613 8.29983L10.3353 10.295C10.5599 10.9551 9.81198 11.5193 9.23898 11.1219L7.36497 9.82223C7.1172 9.65039 6.78881 9.65039 6.54105 9.82223L4.66703 11.1219C4.09404 11.5193 3.34607 10.9551 3.57076 10.295L4.24989 8.29983C4.35388 7.9943 4.24274 7.65684 3.97753 7.47291L2.23488 6.26432C1.6528 5.86062 1.93847 4.94746 2.64684 4.94746L4.87343 4.94746C5.18289 4.94746 5.45802 4.75047 5.55774 4.45752L6.2687 2.36882Z" fill="#FFA858"/>
<path d="M17.9669 2.47434C18.1832 1.80834 19.1254 1.80834 19.3418 2.47434L19.9831 4.44796C20.0799 4.7458 20.3574 4.94746 20.6706 4.94746L22.7458 4.94746C23.446 4.94746 23.7372 5.84353 23.1706 6.25513L21.4918 7.47495C21.2384 7.65903 21.1324 7.9853 21.2292 8.28313L21.8704 10.2568C22.0868 10.9228 21.3246 11.4766 20.758 11.065L19.0792 9.84523C18.8259 9.66115 18.4828 9.66115 18.2294 9.84523L16.5506 11.065C15.9841 11.4766 15.2219 10.9228 15.4382 10.2568L16.0795 8.28313C16.1763 7.9853 16.0703 7.65903 15.8169 7.47495L14.138 6.25513C13.5715 5.84353 13.8627 4.94746 14.5629 4.94746L16.6381 4.94746C16.9513 4.94746 17.2288 4.7458 17.3256 4.44796L17.9669 2.47434Z" fill="#FFA858"/>
<path d="M29.671 2.36882C29.8934 1.71557 30.8173 1.71557 31.0397 2.36882L31.7506 4.45752C31.8503 4.75047 32.1255 4.94746 32.4349 4.94746L34.6615 4.94746C35.3699 4.94746 35.6556 5.86063 35.0735 6.26432L33.3308 7.47291C33.0656 7.65684 32.9545 7.9943 33.0585 8.29983L33.7376 10.295C33.9623 10.9551 33.2143 11.5193 32.6413 11.1219L30.7673 9.82223C30.5195 9.65039 30.1912 9.65039 29.9434 9.82223L28.0694 11.1219C27.4964 11.5193 26.7484 10.9551 26.9731 10.295L27.6522 8.29983C27.7562 7.9943 27.6451 7.65684 27.3799 7.47291L25.6372 6.26432C25.0551 5.86062 25.3408 4.94746 26.0492 4.94746L28.2758 4.94746C28.5852 4.94746 28.8604 4.75047 28.9601 4.45752L29.671 2.36882Z" fill="#FFA858"/>
<path d="M41.3687 2.47434C41.5851 1.80834 42.5273 1.80834 42.7437 2.47434L43.3849 4.44796C43.4817 4.7458 43.7593 4.94746 44.0724 4.94746L46.1476 4.94746C46.8479 4.94746 47.139 5.84353 46.5725 6.25513L44.8936 7.47495C44.6403 7.65903 44.5343 7.9853 44.631 8.28313L45.2723 10.2568C45.4887 10.9228 44.7264 11.4766 44.1599 11.065L42.4811 9.84523C42.2277 9.66115 41.8847 9.66115 41.6313 9.84523L39.9525 11.065C39.386 11.4766 38.6237 10.9228 38.8401 10.2568L39.4814 8.28313C39.5781 7.9853 39.4721 7.65903 39.2188 7.47495L37.5399 6.25513C36.9734 5.84353 37.2645 4.94746 37.9648 4.94746L40.04 4.94746C40.3531 4.94746 40.6307 4.7458 40.7275 4.44796L41.3687 2.47434Z" fill="#FFA858"/>
<path d="M53.0734 2.36882C53.2957 1.71557 54.2197 1.71557 54.442 2.36882L55.153 4.45752C55.2527 4.75047 55.5278 4.94746 55.8373 4.94746L58.0639 4.94746C58.7722 4.94746 59.0579 5.86063 58.4758 6.26432L56.7332 7.47291C56.468 7.65684 56.3568 7.9943 56.4608 8.29983L57.1399 10.295C57.3646 10.9551 56.6167 11.5193 56.0437 11.1219L54.1697 9.82223C53.9219 9.65039 53.5935 9.65039 53.3457 9.82223L51.4717 11.1219C50.8987 11.5193 50.1508 10.9551 50.3755 10.295L51.0546 8.29983C51.1586 7.9943 51.0474 7.65684 50.7822 7.47291L49.0396 6.26432C48.4575 5.86062 48.7432 4.94746 49.4515 4.94746L51.6781 4.94746C51.9876 4.94746 52.2627 4.75047 52.3624 4.45752L53.0734 2.36882Z" fill="#FFA858"/>
</svg>
