<svg width="61" height="14" viewBox="0 0 61 14" fill="none" xmlns="http://www.w3.org/2000/svg">
<path d="M6.39018 2.25691C6.61201 1.6052 7.53375 1.6052 7.75559 2.25692L8.46487 4.3407C8.56435 4.63297 8.83884 4.82949 9.14757 4.82949H11.3689C12.0756 4.82949 12.3606 5.74051 11.7799 6.14326L10.0414 7.34901C9.77678 7.53251 9.6659 7.86917 9.76965 8.17399L10.4472 10.1645C10.6713 10.823 9.92513 11.3859 9.35348 10.9894L7.48387 9.6928C7.23669 9.52137 6.90907 9.52137 6.66189 9.6928L4.79228 10.9894C4.22064 11.3859 3.47443 10.823 3.69859 10.1645L4.37611 8.17399C4.47987 7.86917 4.36898 7.53251 4.1044 7.34901L2.36585 6.14326C1.78514 5.74051 2.07014 4.82949 2.77684 4.82949H4.99819C5.30693 4.82949 5.58141 4.63297 5.6809 4.3407L6.39018 2.25691Z" fill="#FFA858"/>
<path d="M18.0606 2.36194C18.2765 1.69751 19.2165 1.69751 19.4324 2.36194L20.0721 4.33093C20.1687 4.62807 20.4456 4.82925 20.758 4.82925H22.8283C23.5269 4.82925 23.8174 5.72321 23.2522 6.13385L21.5773 7.3508C21.3245 7.53444 21.2187 7.85995 21.3153 8.15708L21.9551 10.1261C22.1709 10.7905 21.4105 11.343 20.8453 10.9324L19.1704 9.71551C18.9177 9.53186 18.5754 9.53186 18.3226 9.71551L16.6478 10.9324C16.0826 11.343 15.3221 10.7905 15.538 10.1261L16.1777 8.15708C16.2743 7.85995 16.1685 7.53444 15.9158 7.3508L14.2408 6.13385C13.6756 5.72321 13.9661 4.82925 14.6647 4.82925H16.735C17.0475 4.82925 17.3244 4.62807 17.4209 4.33093L18.0606 2.36194Z" fill="#FFA858"/>
<path d="M29.7373 2.25667C29.9592 1.60495 30.8809 1.60495 31.1028 2.25667L31.812 4.34046C31.9115 4.63273 32.186 4.82925 32.4947 4.82925H34.7161C35.4228 4.82925 35.7078 5.74027 35.1271 6.14301L33.3885 7.34876C33.1239 7.53226 33.0131 7.86893 33.1168 8.17374L33.7943 10.1642C34.0185 10.8228 33.2723 11.3857 32.7007 10.9892L30.831 9.69256C30.5839 9.52113 30.2562 9.52113 30.0091 9.69256L28.1395 10.9892C27.5678 11.3857 26.8216 10.8228 27.0458 10.1642L27.7233 8.17374C27.827 7.86893 27.7162 7.53226 27.4516 7.34876L25.713 6.14301C25.1323 5.74027 25.4173 4.82925 26.124 4.82925H28.3454C28.6541 4.82925 28.9286 4.63273 29.0281 4.34046L29.7373 2.25667Z" fill="#FFA858"/>
<path d="M41.4077 2.36194C41.6236 1.69751 42.5636 1.69751 42.7794 2.36194L43.4192 4.33093C43.5157 4.62807 43.7926 4.82925 44.1051 4.82925H46.1754C46.874 4.82925 47.1644 5.72321 46.5993 6.13385L44.9243 7.3508C44.6716 7.53444 44.5658 7.85995 44.6623 8.15708L45.3021 10.1261C45.518 10.7905 44.7575 11.343 44.1923 10.9324L42.5175 9.71551C42.2647 9.53186 41.9224 9.53186 41.6697 9.71551L39.9948 10.9324C39.4296 11.343 38.6691 10.7905 38.885 10.1261L39.5248 8.15708C39.6213 7.85995 39.5156 7.53444 39.2628 7.3508L37.5879 6.13385C37.0227 5.72321 37.3132 4.82925 38.0118 4.82925H40.0821C40.3945 4.82925 40.6714 4.62807 40.7679 4.33093L41.4077 2.36194Z" fill="#FFA858"/>
<path d="M53.0848 2.25667C53.3066 1.60495 54.2283 1.60495 54.4502 2.25667L55.1595 4.34046C55.2589 4.63273 55.5334 4.82925 55.8422 4.82925H58.0635C58.7702 4.82925 59.0552 5.74027 58.4745 6.14301L56.7359 7.34876C56.4714 7.53226 56.3605 7.86893 56.4642 8.17374L57.1418 10.1642C57.3659 10.8228 56.6197 11.3857 56.0481 10.9892L54.1785 9.69256C53.9313 9.52113 53.6037 9.52113 53.3565 9.69256L51.4869 10.9892C50.9152 11.3857 50.169 10.8228 50.3932 10.1642L51.0707 8.17374C51.1744 7.86893 51.0636 7.53226 50.799 7.34876L49.0604 6.14301C48.4797 5.74027 48.7647 4.82925 49.4714 4.82925H51.6928C52.0015 4.82925 52.276 4.63273 52.3755 4.34046L53.0848 2.25667Z" fill="#FFA858"/>
</svg>
