<svg width="62" height="14" viewBox="0 0 62 14" fill="none" xmlns="http://www.w3.org/2000/svg">
<path d="M7.18754 2.25752C7.40938 1.60581 8.33112 1.60581 8.55295 2.25753L9.26223 4.34131C9.36172 4.63358 9.6362 4.8301 9.94494 4.8301H12.1663C12.873 4.8301 13.158 5.74112 12.5773 6.14387L10.8387 7.34962C10.5741 7.53312 10.4633 7.86978 10.567 8.1746L11.2445 10.1651C11.4687 10.8236 10.7225 11.3865 10.1508 10.9901L8.28124 9.69341C8.03406 9.52198 7.70644 9.52198 7.45926 9.69341L5.58965 10.9901C5.018 11.3865 4.27179 10.8236 4.49595 10.1651L5.17348 8.1746C5.27723 7.86978 5.16635 7.53312 4.90176 7.34962L3.16322 6.14387C2.5825 5.74112 2.8675 4.8301 3.5742 4.8301H5.79556C6.10429 4.8301 6.37878 4.63358 6.47826 4.34131L7.18754 2.25752Z" fill="#FFA858"/>
<path d="M18.8579 2.36279C19.0738 1.69837 20.0138 1.69837 20.2296 2.3628L20.8694 4.33178C20.9659 4.62892 21.2428 4.8301 21.5552 4.8301H23.6255C24.3242 4.8301 24.6146 5.72406 24.0494 6.1347L22.3745 7.35166C22.1218 7.5353 22.016 7.8608 22.1125 8.15793L22.7523 10.127C22.9682 10.7914 22.2077 11.3439 21.6425 10.9333L19.9677 9.71636C19.7149 9.53272 19.3726 9.53272 19.1199 9.71636L17.445 10.9333C16.8798 11.3439 16.1193 10.7914 16.3352 10.127L16.975 8.15793C17.0715 7.8608 16.9658 7.5353 16.713 7.35166L15.0381 6.1347C14.4729 5.72406 14.7634 4.8301 15.462 4.8301H17.5323C17.8447 4.8301 18.1216 4.62892 18.2181 4.33178L18.8579 2.36279Z" fill="#FFA858"/>
<path d="M30.5345 2.25752C30.7563 1.60581 31.678 1.60581 31.8999 2.25753L32.6092 4.34131C32.7086 4.63358 32.9831 4.8301 33.2919 4.8301H35.5132C36.2199 4.8301 36.5049 5.74112 35.9242 6.14387L34.1857 7.34962C33.9211 7.53312 33.8102 7.86978 33.9139 8.1746L34.5915 10.1651C34.8156 10.8236 34.0694 11.3865 33.4978 10.9901L31.6282 9.69341C31.381 9.52198 31.0534 9.52198 30.8062 9.69341L28.9366 10.9901C28.3649 11.3865 27.6187 10.8236 27.8429 10.1651L28.5204 8.1746C28.6242 7.86978 28.5133 7.53312 28.2487 7.34962L26.5101 6.14387C25.9294 5.74112 26.2144 4.8301 26.9211 4.8301H29.1425C29.4512 4.8301 29.7257 4.63358 29.8252 4.34131L30.5345 2.25752Z" fill="#FFA858"/>
<path d="M42.2048 2.36279C42.4207 1.69837 43.3607 1.69837 43.5766 2.3628L44.2163 4.33178C44.3128 4.62892 44.5897 4.8301 44.9022 4.8301H46.9725C47.6711 4.8301 47.9616 5.72406 47.3964 6.1347L45.7214 7.35166C45.4687 7.5353 45.3629 7.8608 45.4595 8.15793L46.0992 10.127C46.3151 10.7914 45.5546 11.3439 44.9894 10.9333L43.3146 9.71636C43.0618 9.53272 42.7195 9.53272 42.4668 9.71636L40.7919 10.9333C40.2267 11.3439 39.4663 10.7914 39.6821 10.127L40.3219 8.15793C40.4184 7.8608 40.3127 7.5353 40.0599 7.35166L38.385 6.1347C37.8198 5.72406 38.1103 4.8301 38.8089 4.8301H40.8792C41.1916 4.8301 41.4685 4.62892 41.5651 4.33178L42.2048 2.36279Z" fill="#FFA858"/>
<path d="M53.8814 2.25752C54.1032 1.60581 55.025 1.60581 55.2468 2.25753L55.9561 4.34131C56.0556 4.63358 56.3301 4.8301 56.6388 4.8301H58.8601C59.5668 4.8301 59.8518 5.74112 59.2711 6.14387L57.5326 7.34962C57.268 7.53312 57.1571 7.86978 57.2609 8.1746L57.9384 10.1651C58.1626 10.8236 57.4163 11.3865 56.8447 10.9901L54.9751 9.69341C54.7279 9.52198 54.4003 9.52198 54.1531 9.69341L52.2835 10.9901C51.7118 11.3865 50.9656 10.8236 51.1898 10.1651L51.8673 8.1746C51.9711 7.86978 51.8602 7.53312 51.5956 7.34962L49.8571 6.14387C49.2764 5.74112 49.5613 4.8301 50.2681 4.8301H52.4894C52.7981 4.8301 53.0726 4.63358 53.1721 4.34131L53.8814 2.25752Z" fill="#FFA858"/>
</svg>
