<svg width="62" height="14" viewBox="0 0 62 14" fill="none" xmlns="http://www.w3.org/2000/svg">
<path d="M6.97807 2.46224C7.1999 1.81052 8.12164 1.81052 8.34348 2.46224L9.05276 4.54603C9.15224 4.83829 9.42673 5.03482 9.73546 5.03482H11.9568C12.6635 5.03482 12.9485 5.94584 12.3678 6.34858L10.6293 7.55433C10.3647 7.73783 10.2538 8.0745 10.3575 8.37931L11.0351 10.3698C11.2592 11.0284 10.513 11.5912 9.94137 11.1948L8.07176 9.89813C7.82458 9.7267 7.49696 9.7267 7.24978 9.89813L5.38017 11.1948C4.80853 11.5912 4.06232 11.0284 4.28648 10.3698L4.964 8.37931C5.06776 8.0745 4.95688 7.73783 4.69229 7.55433L2.95374 6.34858C2.37303 5.94584 2.65803 5.03482 3.36473 5.03482H5.58608C5.89482 5.03482 6.1693 4.83829 6.26879 4.54603L6.97807 2.46224Z" fill="#FFA858"/>
<path d="M18.6477 2.56751C18.8636 1.90308 19.8035 1.90308 20.0194 2.56751L20.6592 4.5365C20.7557 4.83364 21.0326 5.03482 21.345 5.03482H23.4153C24.114 5.03482 24.4044 5.92878 23.8392 6.33942L22.1643 7.55637C21.9115 7.74001 21.8058 8.06552 21.9023 8.36265L22.5421 10.3317C22.758 10.9961 21.9975 11.5486 21.4323 11.138L19.7575 9.92108C19.5047 9.73743 19.1624 9.73743 18.9097 9.92108L17.2348 11.138C16.6696 11.5486 15.9091 10.9961 16.125 10.3317L16.7648 8.36265C16.8613 8.06552 16.7556 7.74001 16.5028 7.55637L14.8279 6.33942C14.2627 5.92878 14.5532 5.03482 15.2518 5.03482H17.3221C17.6345 5.03482 17.9114 4.83364 18.0079 4.53649L18.6477 2.56751Z" fill="#FFA858"/>
<path d="M30.3252 2.46224C30.5471 1.81052 31.4688 1.81052 31.6906 2.46224L32.3999 4.54603C32.4994 4.83829 32.7739 5.03482 33.0826 5.03482H35.304C36.0107 5.03482 36.2957 5.94584 35.715 6.34858L33.9764 7.55433C33.7118 7.73783 33.601 8.0745 33.7047 8.37931L34.3822 10.3698C34.6064 11.0284 33.8602 11.5912 33.2885 11.1948L31.4189 9.89813C31.1718 9.7267 30.8441 9.7267 30.597 9.89813L28.7273 11.1948C28.1557 11.5912 27.4095 11.0284 27.6336 10.3698L28.3112 8.37931C28.4149 8.0745 28.304 7.73783 28.0395 7.55433L26.3009 6.34858C25.7202 5.94584 26.0052 5.03482 26.7119 5.03482H28.9333C29.242 5.03482 29.5165 4.83829 29.616 4.54603L30.3252 2.46224Z" fill="#FFA858"/>
<path d="M41.9944 2.56751C42.2102 1.90308 43.1502 1.90308 43.3661 2.56751L44.0059 4.5365C44.1024 4.83364 44.3793 5.03482 44.6917 5.03482H46.762C47.4606 5.03482 47.7511 5.92878 47.1859 6.33942L45.511 7.55637C45.2582 7.74001 45.1525 8.06552 45.249 8.36265L45.8888 10.3317C46.1046 10.9961 45.3442 11.5486 44.779 11.138L43.1041 9.92108C42.8514 9.73743 42.5091 9.73743 42.2563 9.92108L40.5815 11.138C40.0163 11.5486 39.2558 10.9961 39.4717 10.3317L40.1115 8.36265C40.208 8.06552 40.1022 7.74001 39.8495 7.55637L38.1745 6.33942C37.6094 5.92878 37.8998 5.03482 38.5984 5.03482H40.6687C40.9812 5.03482 41.2581 4.83364 41.3546 4.53649L41.9944 2.56751Z" fill="#FFA858"/>
<path d="M53.6719 2.46224C53.8938 1.81052 54.8155 1.81052 55.0373 2.46224L55.7466 4.54603C55.8461 4.83829 56.1206 5.03482 56.4293 5.03482H58.6507C59.3574 5.03482 59.6424 5.94584 59.0617 6.34858L57.3231 7.55433C57.0585 7.73783 56.9476 8.0745 57.0514 8.37931L57.7289 10.3698C57.9531 11.0284 57.2069 11.5912 56.6352 11.1948L54.7656 9.89813C54.5184 9.7267 54.1908 9.7267 53.9436 9.89813L52.074 11.1948C51.5024 11.5912 50.7562 11.0284 50.9803 10.3698L51.6579 8.37931C51.7616 8.0745 51.6507 7.73783 51.3861 7.55433L49.6476 6.34858C49.0669 5.94584 49.3519 5.03482 50.0586 5.03482H52.2799C52.5887 5.03482 52.8632 4.83829 52.9626 4.54603L53.6719 2.46224Z" fill="#FFA858"/>
</svg>
