<svg width="61" height="14" viewBox="0 0 61 14" fill="none" xmlns="http://www.w3.org/2000/svg">
<path d="M6.38994 2.25618C6.61177 1.60446 7.53351 1.60447 7.75534 2.25618L8.46463 4.33997C8.56411 4.63224 8.8386 4.82876 9.14733 4.82876H11.3687C12.0754 4.82876 12.3604 5.73978 11.7797 6.14253L10.0411 7.34828C9.77654 7.53177 9.66565 7.86844 9.76941 8.17325L10.4469 10.1637C10.6711 10.8223 9.92489 11.3852 9.35324 10.9887L7.48363 9.69207C7.23645 9.52064 6.90883 9.52064 6.66165 9.69207L4.79204 10.9887C4.22039 11.3852 3.47418 10.8223 3.69835 10.1637L4.37587 8.17325C4.47962 7.86844 4.36874 7.53177 4.10416 7.34828L2.36561 6.14253C1.7849 5.73978 2.06989 4.82876 2.7766 4.82876H4.99795C5.30668 4.82876 5.58117 4.63224 5.68065 4.33997L6.38994 2.25618Z" fill="#FFA858"/>
<path d="M18.0603 2.36145C18.2762 1.69702 19.2161 1.69702 19.432 2.36145L20.0718 4.33044C20.1683 4.62758 20.4452 4.82876 20.7576 4.82876H22.8279C23.5265 4.82876 23.817 5.72272 23.2518 6.13336L21.5769 7.35031C21.3241 7.53395 21.2184 7.85946 21.3149 8.15659L21.9547 10.1256C22.1706 10.7901 21.4101 11.3426 20.8449 10.9319L19.1701 9.71502C18.9173 9.53137 18.575 9.53137 18.3223 9.71502L16.6474 10.9319C16.0822 11.3426 15.3217 10.7901 15.5376 10.1256L16.1774 8.15659C16.2739 7.85946 16.1682 7.53395 15.9154 7.35031L14.2405 6.13336C13.6753 5.72272 13.9658 4.82876 14.6644 4.82876H16.7347C17.0471 4.82876 17.324 4.62758 17.4205 4.33044L18.0603 2.36145Z" fill="#FFA858"/>
<path d="M29.7371 2.25618C29.9589 1.60446 30.8807 1.60447 31.1025 2.25618L31.8118 4.33997C31.9113 4.63224 32.1858 4.82876 32.4945 4.82876H34.7159C35.4226 4.82876 35.7076 5.73978 35.1268 6.14253L33.3883 7.34828C33.1237 7.53177 33.0128 7.86844 33.1166 8.17325L33.7941 10.1637C34.0183 10.8223 33.2721 11.3852 32.7004 10.9887L30.8308 9.69207C30.5836 9.52064 30.256 9.52064 30.0088 9.69207L28.1392 10.9887C27.5676 11.3852 26.8213 10.8223 27.0455 10.1637L27.723 8.17325C27.8268 7.86844 27.7159 7.53177 27.4513 7.34828L25.7128 6.14253C25.1321 5.73978 25.4171 4.82876 26.1238 4.82876H28.3451C28.6539 4.82876 28.9283 4.63224 29.0278 4.33997L29.7371 2.25618Z" fill="#FFA858"/>
<path d="M41.4074 2.36145C41.6233 1.69702 42.5633 1.69702 42.7792 2.36145L43.4189 4.33044C43.5155 4.62758 43.7924 4.82876 44.1048 4.82876H46.1751C46.8737 4.82876 47.1642 5.72272 46.599 6.13336L44.9241 7.35031C44.6713 7.53395 44.5656 7.85946 44.6621 8.15659L45.3019 10.1256C45.5177 10.7901 44.7573 11.3426 44.1921 10.9319L42.5172 9.71502C42.2645 9.53137 41.9222 9.53137 41.6694 9.71502L39.9946 10.9319C39.4294 11.3426 38.6689 10.7901 38.8848 10.1256L39.5245 8.15659C39.6211 7.85946 39.5153 7.53395 39.2626 7.35031L37.5876 6.13336C37.0224 5.72272 37.3129 4.82876 38.0115 4.82876H40.0818C40.3943 4.82876 40.6712 4.62758 40.7677 4.33044L41.4074 2.36145Z" fill="#FFA858"/>
<path d="M53.0845 2.25618C53.3063 1.60446 54.2281 1.60447 54.4499 2.25618L55.1592 4.33997C55.2587 4.63224 55.5332 4.82876 55.8419 4.82876H58.0633C58.77 4.82876 59.055 5.73978 58.4743 6.14253L56.7357 7.34828C56.4711 7.53177 56.3602 7.86844 56.464 8.17325L57.1415 10.1637C57.3657 10.8223 56.6195 11.3852 56.0478 10.9887L54.1782 9.69207C53.931 9.52064 53.6034 9.52064 53.3562 9.69207L51.4866 10.9887C50.915 11.3852 50.1688 10.8223 50.3929 10.1637L51.0705 8.17325C51.1742 7.86844 51.0633 7.53177 50.7987 7.34828L49.0602 6.14253C48.4795 5.73978 48.7645 4.82876 49.4712 4.82876H51.6925C52.0013 4.82876 52.2757 4.63224 52.3752 4.33997L53.0845 2.25618Z" fill="#FFA858"/>
</svg>
