<svg width="62" height="14" viewBox="0 0 62 14" fill="none" xmlns="http://www.w3.org/2000/svg">
<path d="M7.05815 2.46175C7.27998 1.81003 8.20172 1.81003 8.42355 2.46175L9.13284 4.54554C9.23232 4.83781 9.50681 5.03433 9.81554 5.03433H12.0369C12.7436 5.03433 13.0286 5.94535 12.4479 6.34809L10.7093 7.55384C10.4447 7.73734 10.3339 8.07401 10.4376 8.37882L11.1151 10.3693C11.3393 11.0279 10.5931 11.5907 10.0215 11.1943L8.15184 9.89764C7.90466 9.72621 7.57704 9.72621 7.32986 9.89764L5.46025 11.1943C4.88861 11.5907 4.14239 11.0279 4.36656 10.3693L5.04408 8.37882C5.14784 8.07401 5.03695 7.73734 4.77237 7.55384L3.03382 6.34809C2.45311 5.94535 2.7381 5.03433 3.44481 5.03433H5.66616C5.9749 5.03433 6.24938 4.83781 6.34886 4.54554L7.05815 2.46175Z" fill="#FFA858"/>
<path d="M18.7287 2.56702C18.9446 1.90259 19.8846 1.90259 20.1005 2.56702L20.7402 4.53601C20.8368 4.83315 21.1137 5.03433 21.4261 5.03433H23.4964C24.195 5.03433 24.4855 5.92829 23.9203 6.33893L22.2454 7.55588C21.9926 7.73952 21.8868 8.06503 21.9834 8.36216L22.6231 10.3312C22.839 10.9956 22.0786 11.5481 21.5134 11.1375L19.8385 9.92059C19.5857 9.73694 19.2435 9.73694 18.9907 9.92059L17.3158 11.1375C16.7507 11.5481 15.9902 10.9956 16.2061 10.3312L16.8458 8.36216C16.9424 8.06503 16.8366 7.73952 16.5839 7.55588L14.9089 6.33893C14.3437 5.92829 14.6342 5.03433 15.3328 5.03433H17.4031C17.7155 5.03433 17.9924 4.83315 18.089 4.53601L18.7287 2.56702Z" fill="#FFA858"/>
<path d="M30.4058 2.46175C30.6276 1.81003 31.5494 1.81003 31.7712 2.46175L32.4805 4.54554C32.58 4.83781 32.8545 5.03433 33.1632 5.03433H35.3846C36.0913 5.03433 36.3763 5.94535 35.7955 6.34809L34.057 7.55384C33.7924 7.73734 33.6815 8.07401 33.7853 8.37882L34.4628 10.3693C34.687 11.0279 33.9408 11.5907 33.3691 11.1943L31.4995 9.89764C31.2523 9.72621 30.9247 9.72621 30.6775 9.89764L28.8079 11.1943C28.2363 11.5907 27.4901 11.0279 27.7142 10.3693L28.3917 8.37882C28.4955 8.07401 28.3846 7.73734 28.12 7.55384L26.3815 6.34809C25.8008 5.94535 26.0858 5.03433 26.7925 5.03433H29.0138C29.3226 5.03433 29.597 4.83781 29.6965 4.54554L30.4058 2.46175Z" fill="#FFA858"/>
<path d="M42.0764 2.56702C42.2923 1.90259 43.2323 1.90259 43.4481 2.56702L44.0879 4.53601C44.1844 4.83315 44.4613 5.03433 44.7738 5.03433H46.8441C47.5427 5.03433 47.8331 5.92829 47.268 6.33893L45.593 7.55588C45.3403 7.73952 45.2345 8.06503 45.331 8.36216L45.9708 10.3312C46.1867 10.9956 45.4262 11.5481 44.861 11.1375L43.1862 9.92059C42.9334 9.73694 42.5911 9.73694 42.3384 9.92059L40.6635 11.1375C40.0983 11.5481 39.3378 10.9956 39.5537 10.3312L40.1935 8.36216C40.29 8.06503 40.1843 7.73952 39.9315 7.55588L38.2566 6.33893C37.6914 5.92829 37.9819 5.03433 38.6805 5.03433H40.7508C41.0632 5.03433 41.3401 4.83315 41.4366 4.53601L42.0764 2.56702Z" fill="#FFA858"/>
<path d="M53.7525 2.46175C53.9743 1.81003 54.8961 1.81003 55.1179 2.46175L55.8272 4.54554C55.9267 4.83781 56.2011 5.03433 56.5099 5.03433H58.7312C59.4379 5.03433 59.7229 5.94535 59.1422 6.34809L57.4037 7.55384C57.1391 7.73734 57.0282 8.07401 57.132 8.37882L57.8095 10.3693C58.0336 11.0279 57.2874 11.5907 56.7158 11.1943L54.8462 9.89764C54.599 9.72621 54.2714 9.72621 54.0242 9.89764L52.1546 11.1943C51.5829 11.5907 50.8367 11.0279 51.0609 10.3693L51.7384 8.37882C51.8422 8.07401 51.7313 7.73734 51.4667 7.55384L49.7282 6.34809C49.1474 5.94535 49.4324 5.03433 50.1391 5.03433H52.3605C52.6692 5.03433 52.9437 4.83781 53.0432 4.54554L53.7525 2.46175Z" fill="#FFA858"/>
</svg>
