<svg width="62" height="14" viewBox="0 0 62 14" fill="none" xmlns="http://www.w3.org/2000/svg">
<path d="M7.07622 2.25618C7.29805 1.60446 8.21979 1.60447 8.44162 2.25618L9.15091 4.33997C9.25039 4.63224 9.52488 4.82876 9.83361 4.82876H12.055C12.7617 4.82876 13.0467 5.73978 12.466 6.14253L10.7274 7.34828C10.4628 7.53177 10.3519 7.86844 10.4557 8.17325L11.1332 10.1637C11.3574 10.8223 10.6112 11.3852 10.0395 10.9887L8.16991 9.69207C7.92273 9.52064 7.59511 9.52064 7.34793 9.69207L5.47832 10.9887C4.90667 11.3852 4.16046 10.8223 4.38462 10.1637L5.06215 8.17325C5.1659 7.86844 5.05502 7.53177 4.79044 7.34828L3.05189 6.14253C2.47118 5.73978 2.75617 4.82876 3.46288 4.82876H5.68423C5.99296 4.82876 6.26745 4.63224 6.36693 4.33997L7.07622 2.25618Z" fill="#FFA858"/>
<path d="M18.7468 2.36145C18.9627 1.69702 19.9027 1.69702 20.1185 2.36145L20.7583 4.33044C20.8548 4.62758 21.1317 4.82876 21.4442 4.82876H23.5145C24.2131 4.82876 24.5035 5.72272 23.9384 6.13336L22.2634 7.35031C22.0107 7.53395 21.9049 7.85946 22.0014 8.15659L22.6412 10.1256C22.8571 10.7901 22.0966 11.3426 21.5314 10.9319L19.8566 9.71502C19.6038 9.53137 19.2615 9.53137 19.0088 9.71502L17.3339 10.9319C16.7687 11.3426 16.0083 10.7901 16.2241 10.1256L16.8639 8.15659C16.9604 7.85946 16.8547 7.53395 16.6019 7.35031L14.927 6.13336C14.3618 5.72272 14.6523 4.82876 15.3509 4.82876H17.4212C17.7336 4.82876 18.0105 4.62758 18.1071 4.33044L18.7468 2.36145Z" fill="#FFA858"/>
<path d="M30.4234 2.25618C30.6452 1.60446 31.567 1.60447 31.7888 2.25618L32.4981 4.33997C32.5976 4.63224 32.872 4.82876 33.1808 4.82876H35.4021C36.1088 4.82876 36.3938 5.73978 35.8131 6.14253L34.0746 7.34828C33.81 7.53177 33.6991 7.86844 33.8029 8.17325L34.4804 10.1637C34.7045 10.8223 33.9583 11.3852 33.3867 10.9887L31.5171 9.69207C31.2699 9.52064 30.9423 9.52064 30.6951 9.69207L28.8255 10.9887C28.2538 11.3852 27.5076 10.8223 27.7318 10.1637L28.4093 8.17325C28.5131 7.86844 28.4022 7.53177 28.1376 7.34828L26.3991 6.14253C25.8183 5.73978 26.1033 4.82876 26.81 4.82876H29.0314C29.3401 4.82876 29.6146 4.63224 29.7141 4.33997L30.4234 2.25618Z" fill="#FFA858"/>
<path d="M42.0935 2.36145C42.3094 1.69702 43.2493 1.69702 43.4652 2.36145L44.105 4.33044C44.2015 4.62758 44.4784 4.82876 44.7908 4.82876H46.8611C47.5598 4.82876 47.8502 5.72272 47.285 6.13336L45.6101 7.35031C45.3573 7.53395 45.2516 7.85946 45.3481 8.15659L45.9879 10.1256C46.2038 10.7901 45.4433 11.3426 44.8781 10.9319L43.2033 9.71502C42.9505 9.53137 42.6082 9.53137 42.3555 9.71502L40.6806 10.9319C40.1154 11.3426 39.3549 10.7901 39.5708 10.1256L40.2106 8.15659C40.3071 7.85946 40.2014 7.53395 39.9486 7.35031L38.2737 6.13336C37.7085 5.72272 37.999 4.82876 38.6976 4.82876H40.7679C41.0803 4.82876 41.3572 4.62758 41.4537 4.33044L42.0935 2.36145Z" fill="#FFA858"/>
<path d="M53.7706 2.25618C53.9924 1.60446 54.9141 1.60447 55.136 2.25618L55.8452 4.33997C55.9447 4.63224 56.2192 4.82876 56.5279 4.82876H58.7493C59.456 4.82876 59.741 5.73978 59.1603 6.14253L57.4217 7.34828C57.1572 7.53177 57.0463 7.86844 57.15 8.17325L57.8275 10.1637C58.0517 10.8223 57.3055 11.3852 56.7339 10.9887L54.8642 9.69207C54.6171 9.52064 54.2894 9.52064 54.0423 9.69207L52.1727 10.9887C51.601 11.3852 50.8548 10.8223 51.079 10.1637L51.7565 8.17325C51.8602 7.86844 51.7494 7.53177 51.4848 7.34828L49.7462 6.14253C49.1655 5.73978 49.4505 4.82876 50.1572 4.82876H52.3786C52.6873 4.82876 52.9618 4.63224 53.0613 4.33997L53.7706 2.25618Z" fill="#FFA858"/>
</svg>
