<svg width="62" height="14" viewBox="0 0 62 14" fill="none" xmlns="http://www.w3.org/2000/svg">
<path d="M6.57607 2.36858C6.79843 1.71532 7.72234 1.71532 7.94469 2.36858L8.65565 4.45727C8.75537 4.75023 9.0305 4.94721 9.33996 4.94721L11.5665 4.94721C12.2749 4.94721 12.5606 5.86038 11.9785 6.26408L10.2359 7.47267C9.97065 7.6566 9.85951 7.99406 9.9635 8.29959L10.6426 10.2948C10.8673 10.9549 10.1193 11.5191 9.54636 11.1217L7.67234 9.82198C7.42458 9.65015 7.09619 9.65015 6.84842 9.82198L4.97441 11.1217C4.40141 11.5191 3.65344 10.9549 3.87814 10.2948L4.55726 8.29959C4.66126 7.99406 4.55011 7.6566 4.2849 7.47267L2.54226 6.26408C1.96018 5.86038 2.24585 4.94721 2.95422 4.94721L5.1808 4.94721C5.49026 4.94721 5.7654 4.75023 5.86511 4.45727L6.57607 2.36858Z" fill="#FFA858"/>
<path d="M18.2745 2.47385C18.4909 1.80785 19.4331 1.80785 19.6494 2.47385L20.2907 4.44747C20.3875 4.74532 20.665 4.94697 20.9782 4.94697L23.0534 4.94697C23.7536 4.94697 24.0448 5.84304 23.4783 6.25464L21.7994 7.47446C21.546 7.65854 21.44 7.98481 21.5368 8.28264L22.1781 10.2563C22.3944 10.9223 21.6322 11.4761 21.0657 11.0645L19.3869 9.84475C19.1335 9.66066 18.7904 9.66066 18.5371 9.84475L16.8582 11.0645C16.2917 11.4761 15.5295 10.9223 15.7459 10.2563L16.3871 8.28264C16.4839 7.98481 16.3779 7.65854 16.1245 7.47446L14.4456 6.25464C13.8791 5.84304 14.1703 4.94697 14.8705 4.94697L16.9457 4.94697C17.2589 4.94697 17.5364 4.74532 17.6332 4.44747L18.2745 2.47385Z" fill="#FFA858"/>
<path d="M29.9787 2.36833C30.201 1.71508 31.1249 1.71508 31.3473 2.36833L32.0582 4.45703C32.158 4.74998 32.4331 4.94697 32.7425 4.94697L34.9691 4.94697C35.6775 4.94697 35.9632 5.86014 35.3811 6.26383L33.6384 7.47242C33.3732 7.65635 33.2621 7.99381 33.3661 8.29934L34.0452 10.2945C34.2699 10.9546 33.5219 11.5188 32.9489 11.1214L31.0749 9.82174C30.8272 9.64991 30.4988 9.64991 30.251 9.82174L28.377 11.1214C27.804 11.5188 27.056 10.9546 27.2807 10.2945L27.9598 8.29934C28.0638 7.99381 27.9527 7.65635 27.6875 7.47242L25.9448 6.26383C25.3628 5.86014 25.6484 4.94697 26.3568 4.94697L28.5834 4.94697C28.8929 4.94697 29.168 4.74998 29.2677 4.45703L29.9787 2.36833Z" fill="#FFA858"/>
<path d="M41.6763 2.47385C41.8927 1.80785 42.8349 1.80785 43.0513 2.47385L43.6926 4.44747C43.7893 4.74532 44.0669 4.94697 44.38 4.94697L46.4552 4.94697C47.1555 4.94697 47.4466 5.84304 46.8801 6.25464L45.2012 7.47446C44.9479 7.65854 44.8419 7.98481 44.9386 8.28264L45.5799 10.2563C45.7963 10.9223 45.034 11.4761 44.4675 11.0645L42.7887 9.84475C42.5354 9.66066 42.1923 9.66066 41.9389 9.84475L40.2601 11.0645C39.6936 11.4761 38.9313 10.9223 39.1477 10.2563L39.789 8.28264C39.8858 7.98481 39.7797 7.65854 39.5264 7.47446L37.8475 6.25464C37.281 5.84304 37.5722 4.94697 38.2724 4.94697L40.3476 4.94697C40.6608 4.94697 40.9383 4.74532 41.0351 4.44747L41.6763 2.47385Z" fill="#FFA858"/>
<path d="M53.3805 2.36833C53.6029 1.71508 54.5268 1.71508 54.7491 2.36833L55.4601 4.45703C55.5598 4.74998 55.8349 4.94697 56.1444 4.94697L58.371 4.94697C59.0794 4.94697 59.365 5.86014 58.7829 6.26383L57.0403 7.47242C56.7751 7.65635 56.664 7.99381 56.7679 8.29934L57.4471 10.2945C57.6718 10.9546 56.9238 11.5188 56.3508 11.1214L54.4768 9.82174C54.229 9.64991 53.9006 9.64991 53.6529 9.82174L51.7788 11.1214C51.2059 11.5188 50.4579 10.9546 50.6826 10.2945L51.3617 8.29934C51.4657 7.99381 51.3546 7.65635 51.0893 7.47242L49.3467 6.26383C48.7646 5.86014 49.0503 4.94697 49.7587 4.94697L51.9852 4.94697C52.2947 4.94697 52.5698 4.74998 52.6696 4.45703L53.3805 2.36833Z" fill="#FFA858"/>
</svg>
