<svg width="42" height="42" viewBox="0 0 42 42" fill="none" xmlns="http://www.w3.org/2000/svg">
<g clip-path="url(#clip0_129_456)">
<path d="M28.0044 40.0083H16.0044L14.5044 28.0083H29.5044L28.0044 40.0083ZM36.6444 17.7183C36.0311 18.2521 35.3158 18.6557 34.5418 18.9046C33.7678 19.1535 32.9513 19.2425 32.1418 19.1662C31.3324 19.0898 30.5469 18.8498 29.8331 18.4606C29.1192 18.0715 28.4919 17.5413 27.9893 16.9022C27.4866 16.2632 27.119 15.5287 26.9089 14.7433C26.6988 13.9579 26.6505 13.138 26.7669 12.3333C26.8834 11.5287 27.1622 10.7561 27.5863 10.0624C28.0105 9.36882 28.5712 8.76865 29.2344 8.29835C31.8144 6.25835 40.0044 7.45835 40.0044 7.45835C40.0044 7.45835 39.2544 15.6783 36.6444 17.7183Z" stroke="#F8F8F8" stroke-width="3" stroke-linecap="round" stroke-linejoin="round"/>
<path d="M28.0044 16.4283C26.2699 17.8495 24.8433 19.6093 23.8117 21.6003C22.7801 23.5913 22.1651 25.7717 22.0044 28.0083C22.0044 19.0083 17.5044 13.0083 10.0044 8.5083" stroke="#F8F8F8" stroke-width="3" stroke-linecap="round" stroke-linejoin="round"/>
<path d="M5.26457 14.5085C6.73339 15.77 8.62454 16.4302 10.5594 16.3569C12.4942 16.2836 14.33 15.4821 15.6991 14.113C17.0682 12.7439 17.8697 10.9081 17.943 8.97328C18.0163 7.03844 17.3561 5.1473 16.0946 3.67847C13.0946 0.708474 2.50457 1.00847 2.50457 1.00847C2.50457 1.00847 2.26457 11.5085 5.26457 14.5085Z" stroke="#F8F8F8" stroke-width="3" stroke-linecap="round" stroke-linejoin="round"/>
</g>
<defs>
<clipPath id="clip0_129_456">
<rect width="42" height="42" fill="white"/>
</clipPath>
</defs>
</svg>
